<?xml version="1.0" encoding="UTF-8"?>
<!-- Generator: Adobe Illustrator 21.0.2, SVG Export Plug-In . SVG Version: 6.00 Build 0)  -->
<svg version="1.2" baseProfile="tiny" id="Calque_1" xmlns="http://www.w3.org/2000/svg" xmlns:xlink="http://www.w3.org/1999/xlink" x="0px" y="0px" viewBox="0 0 92 92" overflow="scroll" xml:space="preserve">
<path fill="#E45E37" d="M30.5956497,37.3772888v34.3894196h9.2943916V28.0209465h-7.621479  c-4.3373051,3.284029-9.8519306,6.1962128-14.4373245,8.1170692l2.9744225,6.6919518  C23.7178516,41.5287476,27.9312572,39.4839935,30.5956497,37.3772888z"/>
  <path fill="#E45E37" d="M57.4308701,37.3772888v34.3894196h9.2943954V28.0209465h-7.6214752  c-4.337307,3.284029-9.8522224,6.1962128-14.4373245,8.1170692l2.9741325,6.6919518  C50.5527878,41.5287476,54.7664833,39.4839935,57.4308701,37.3772888z"/>
  <path fill="#E45E37" d="M85.7491684,46.1303024c0,21.8775864-17.8828583,39.640564-39.6494713,39.640564  c-21.8775845,0-39.7290154-17.6745224-39.7290154-39.640564c0-9.1442986,3.1193528-17.5693455,8.3473682-24.2793407H6.9999528  c-4.4329357,7.0611076-6.9999557,15.3894062-6.9999557,24.2793407c0,25.4611206,20.7270298,46.0112381,46.0997009,46.0112381  C71.4498825,92.1415405,92,71.7020645,92,46.1303024c0-8.9082031-2.6342545-17.2300739-7.1145325-24.2793407h-7.4873428  C82.6243668,28.5609169,85.7491684,36.985939,85.7491684,46.1303024z"/>
  <g>
	<polygon fill="#E45E37" points="20.5830898,12.531249 13.5374365,12.531249 13.5374365,8.1446304 19.6664028,8.1446304    19.6664028,6.0111647 13.5374365,6.0111647 13.5374365,2.3342261 20.359684,2.3342261 20.359684,0.1414196 10.7675867,0.1414196    10.7675867,14.7251282 20.5830898,14.7251282  "/>
    <polygon fill="#E45E37" points="24.7373638,14.7255974 27.1807957,11.2111931 29.6045723,14.7255974 32.699707,14.7255974    28.7491837,9.4644852 32.4149323,4.5692081 29.5837822,4.5692081 27.3034611,7.7583427 25.1239471,4.5692081 22.0496025,4.5692081    25.755928,9.5457516 21.8459167,14.7255974  "/>
    <path fill="#E45E37" d="M37.0166855,14.8677483c0.2310944,0.0263519,0.4753571,0.0504904,0.7327232,0.0714102   c0.258503,0.0197134,0.522419,0.0296373,0.7940903,0.0296373c1.8060341,0,3.2013512-0.4998741,4.1848869-1.50284   c0.9846077-1.0019598,1.4764099-2.4234657,1.4764099-4.2657909c0-0.6767569-0.081089-1.3095279-0.2442627-1.8983803   c-0.1631775-0.5899248-0.4139938-1.1040807-0.7535133-1.5446134c-0.3395233-0.4393926-0.760128-0.7888012-1.2617569-1.0458121   c-0.502697-0.2570782-1.0930328-0.3867569-1.7720757-0.3867569c-0.7743034,0-1.4150391,0.2043748-1.9243546,0.6097054   c-0.5092506,0.4065371-0.9057274,0.9074836-1.1915703,1.5029068h-0.0405769V4.5696106h-2.7084808v14.5837097h2.7084808V14.8677483z    M37.0166855,9.7285366c0-0.4603138,0.0504036-0.9041319,0.1522827-1.3303823   c0.1029434-0.4273233,0.2760162-0.7953725,0.5202103-1.1073661c0.1895142-0.2295866,0.41399-0.4097557,0.6714211-0.5382948   c0.2584343-0.1285391,0.5837173-0.1922383,0.9779892-0.1922383c0.4074402,0,0.7426147,0.0736232,1.0076675,0.2230153   s0.4752884,0.3526273,0.6308441,0.6097054c0.1566277,0.2570777,0.2650528,0.5547895,0.326355,0.8931341   c0.0613632,0.3394852,0.0920486,0.6976109,0.0920486,1.0765896c0,0.541647-0.0416451,1.0393085-0.1226654,1.4929829   c-0.0821571,0.453742-0.2278175,0.847003-0.4381218,1.1787777c-0.2103043,0.3317738-0.4884605,0.5888519-0.8345985,0.7712336   c-0.3460732,0.1823816-0.7841949,0.2746458-1.3131638,0.2746458c-0.583786,0-1.1401634-0.0879059-1.670269-0.2647896V9.7285366z"/>
    <path fill="#E45E37" d="M49.3773651,9.2614508c0-0.717391,0.1828957-1.2721806,0.5498238-1.665441   c0.3121147-0.3394852,0.7195549-0.5284381,1.2222519-0.5690718c0.5016289-0.0406337,1.0580025,0.0131421,1.6691284,0.1626015   l0.5914726-2.8233647c-0.9649506-0.0944767-1.762249,0.0164948-2.3930931,0.3350592   c-0.6319847,0.317492-1.1642265,0.8975601-1.5990753,1.7368522h-0.0405083V4.5694094h-2.7085495v10.1563892h2.7085495V9.2614508z"/>
    <path fill="#E45E37" d="M55.6898956,13.587656c0.4610519,0.4471035,1.025116,0.7888012,1.6899185,1.0260992   c0.6659393,0.2361574,1.4117661,0.3559122,2.2408829,0.3559122c0.637394,0,1.2419701-0.0483446,1.8115158-0.1428213   c0.5706139-0.0944757,1.2146301-0.2977114,1.935318-0.609705l-0.6922112-1.9290905   c-0.4753571,0.2295866-0.9265823,0.3998995-1.3548126,0.5075178c-0.4271584,0.1087589-0.9134102,0.1626015-1.4555473,0.1626015   c-1.018631,0-1.758976-0.2702198-2.2200928-0.8129406c-0.4610519-0.541647-0.6921463-1.2930336-0.6921463-2.2542925h6.8627586   V8.9153948c0-0.6360569-0.0788803-1.2315469-0.234436-1.7874093c-0.156559-0.5547895-0.4040947-1.0381684-0.743618-1.4523497   c-0.3395195-0.4119682-0.7809181-0.7415295-1.3230553-0.9843254c-0.5432777-0.2438688-1.2014618-0.3669095-1.9758301-0.3669095   c-0.8684921,0-1.631897,0.1395354-2.2901497,0.4174666c-0.6593208,0.2768583-1.2091484,0.6569772-1.6494064,1.1370034   c-0.4424706,0.4812331-0.7743683,1.0535903-0.9988441,1.7171388c-0.2234764,0.663548-0.3351784,1.3808722-0.3351784,2.1531787   c0,0.826149,0.1215973,1.5611076,0.3657913,2.2038031C54.8750191,12.5956192,55.2287788,13.1405516,55.6898956,13.587656z    M57.9099197,6.732512c0.3931999-0.3592653,0.9156189-0.5382948,1.5673218-0.5382948   c0.2989426,0,0.5563736,0.0604138,0.7742996,0.1823149c0.2168541,0.1219678,0.3931999,0.2779984,0.5290375,0.4680238   c0.1357651,0.1889534,0.2376442,0.4031849,0.3055611,0.6393423c0.0679169,0.2372975,0.1018105,0.4713097,0.1018105,0.7008963   h-4.092907C57.2440453,7.5750895,57.5156517,7.0906377,57.9099197,6.732512z"/>
    <path fill="#E45E37" d="M70.4741516,12.7246943c-0.3121185,0.16924-0.6658783,0.2537928-1.0590744,0.2537928   c-0.5158691,0-1.0284576-0.0911913-1.5377045-0.2746458c-0.5081787-0.1823816-0.9944992-0.4570274-1.4555511-0.8217239   l-1.0382843,2.0719118c0.7326508,0.4196787,1.4314194,0.6931849,2.0973587,0.8217239   c0.6648026,0.1285391,1.3372955,0.1933784,2.0163345,0.1933784c0.5695496,0,1.1094818-0.0779819,1.6187286-0.2340126   c0.5093155-0.1548901,0.9528503-0.3789787,1.3340225-0.6701193c0.3789597-0.2911396,0.6812439-0.6394091,0.9057846-1.0458794   c0.2234116-0.4064703,0.3362503-0.8535738,0.3362503-1.3402386c0-0.4745951-0.0788803-0.8712082-0.234436-1.1886997   c-0.1566238-0.3185654-0.3635864-0.5822144-0.6209564-0.7920876c-0.2584991-0.2098064-0.5607834-0.3822641-0.9068604-0.5185146   c-0.346138-0.134037-0.702034-0.2504396-1.0689621-0.3449154l-1.1401596-0.3252029   c-0.3121185-0.0812674-0.5903397-0.1988773-0.8345337-0.3559132c-0.2442627-0.1549578-0.3669281-0.4086828-0.3669281-0.7613773   c0-0.202095,0.0437851-0.3756933,0.1324921-0.5173745c0.0876389-0.1428208,0.2037506-0.2537923,0.346138-0.3351264   c0.1423874-0.0812674,0.2990112-0.1394687,0.4687347-0.1735311c0.168663-0.0329895,0.3351822-0.0494843,0.4983597-0.0494843   c0.4752884,0,0.8794479,0.0604811,1.2113495,0.1823816c0.332901,0.1219678,0.6823196,0.3109207,1.0491791,0.5679989   l1.018631-1.9697909c-0.5301056-0.2438688-1.0459671-0.4328218-1.5486679-0.5690718   c-0.5016251-0.1351099-1.1270599-0.2032351-1.872879-0.2032351c-0.4479523,0-0.910141,0.0549827-1.3843613,0.1626015   c-0.4753571,0.1087584-0.913475,0.2911406-1.3132324,0.5482183c-0.4008179,0.2581511-0.7305145,0.5866394-0.9878769,0.9853988   c-0.2584991,0.399899-0.3877182,0.8975601-0.3877182,1.4929829c0,0.4603133,0.0744705,0.8535743,0.2245407,1.1787772   c0.148941,0.3252029,0.352623,0.5987082,0.6111298,0.8217239c0.2573624,0.2241554,0.5563736,0.4064703,0.8958969,0.5492916   c0.3395157,0.1417475,0.698761,0.2670012,1.0787888,0.3757601l1.2836227,0.3658361   c0.4206085,0.1076193,0.7086563,0.2460814,0.8652802,0.4163265c0.1554871,0.1691732,0.2343674,0.3889027,0.2343674,0.6602631   C70.942955,12.2743053,70.7863312,12.555522,70.4741516,12.7246943z"/>
    <path fill="#E45E37" d="M80.1266098,12.7246943c-0.3121109,0.16924-0.6658707,0.2537928-1.0590744,0.2537928   c-0.5158615,0-1.0284576-0.0911913-1.5377045-0.2746458c-0.5081787-0.1823816-0.9944992-0.4570274-1.4556198-0.8217239   l-1.0382843,2.0719118c0.7327271,0.4196787,1.431488,0.6931849,2.0974274,0.8217239   c0.6648026,0.1285391,1.3372955,0.1933784,2.0163422,0.1933784c0.5694733,0,1.1094742-0.0779819,1.618721-0.2340126   c0.5093155-0.1548901,0.952858-0.3789787,1.3340225-0.6701193c0.3800278-0.2911396,0.6812515-0.6394091,0.9057922-1.0458794   c0.2234039-0.4064703,0.3361816-0.8535738,0.3361816-1.3402386c0-0.4745951-0.0788193-0.8712082-0.234375-1.1886997   c-0.1566238-0.3185654-0.3635864-0.5822144-0.6209488-0.7920876c-0.2584991-0.2098064-0.560791-0.3822641-0.9068604-0.5185146   c-0.346138-0.134037-0.7021103-0.2504396-1.0689697-0.3449154l-1.1401596-0.3252029   c-0.3121109-0.0812674-0.5903397-0.1988773-0.8346024-0.3559132c-0.244194-0.1549578-0.3668594-0.4086828-0.3668594-0.7613773   c0-0.202095,0.0437851-0.3756933,0.1324921-0.5173745c0.0876389-0.1428208,0.2037506-0.2537923,0.346138-0.3351264   c0.1423874-0.0812674,0.2989502-0.1394687,0.4687424-0.1735311c0.1686554-0.0329895,0.3351059-0.0494843,0.4983521-0.0494843   c0.4752884,0,0.8794556,0.0604811,1.2112885,0.1823816c0.3329697,0.1219678,0.6823807,0.3109207,1.0492477,0.5679989   l1.0185623-1.9697909c-0.5300369-0.2438688-1.0459061-0.4328218-1.5486679-0.5690718   c-0.501564-0.1351099-1.1258545-0.2032351-1.872818-0.2032351c-0.4479523,0-0.9101334,0.0549827-1.3844223,0.1626015   c-0.4752884,0.1087584-0.913414,0.2911406-1.3131638,0.5482183C76.376503,5.2939081,76.046875,5.6223965,75.789505,6.0211558   c-0.2584991,0.399899-0.3877182,0.8975601-0.3877182,1.4929829c0,0.4603133,0.0744705,0.8535743,0.2244797,1.1787772   c0.1490021,0.3252029,0.3526917,0.5987082,0.6111908,0.8217239c0.2573624,0.2241554,0.5563736,0.4064703,0.8958969,0.5492916   c0.3395233,0.1417475,0.698761,0.2670012,1.0787964,0.3757601l1.2836151,0.3658361   c0.4206085,0.1076193,0.7086563,0.2460814,0.8652115,0.4163265c0.1555557,0.1691732,0.234436,0.3889027,0.234436,0.6602631   C80.5954132,12.2743053,80.4387894,12.555522,80.1266098,12.7246943z"/>
</g>
  <g>
</g>
  <g>
</g>
  <g>
</g>
  <g>
</g>
  <g>
</g>
  <g>
</g>
</svg>
