<svg xmlns="http://www.w3.org/2000/svg" height="1000" width="1718" viewBox="0 0 1804 1050"><path fill="#f68f4b" d="M0 0h1718v1000H0z"/><path d="M350.002 860v-93c18-82 99-154 193-236 47-41 98-90 98-158 0-61-40-110-117-110-62 0-105 45-122 64l-74-98c68-59 131-87 226-87 124 0 241 70 241 214 0 121-77 176-162 253-36 33-107 92-116 133h291v118h-458zM1137 878c-213 0-255-206-255-369s46-369 259-369 255 206 255 369-46 369-259 369zm2-619c-102 0-105 178-105 250 0 71 5 251 105 251s104-181 104-251c0-74-3-250-104-250z"/></svg>