<svg xmlns="http://www.w3.org/2000/svg" height="1000" width="1718" viewBox="0 0 1804 1050"><path fill="#9c983a" d="M0 0h1718v1000H0z"/><g fill="#fff"><path d="M534.002 874c-91 0-146-21-203-53l54-109c30 23 79 46 139 46 82 0 133-44 133-104 0-81-62-107-134-107h-73V430h74c69 0 112-34 112-88 0-45-34-84-108-84-65 0-108 31-131 51l-49-104c61-40 129-63 212-63 144 0 226 84 226 178 0 73-39 129-114 157v2c78 15 137 73 137 172 0 124-111 223-275 223zM910 860v-93c18-82 99-154 193-236 47-41 98-90 98-158 0-61-40-110-117-110-62 0-105 45-122 64l-74-98c68-59 131-87 226-87 124 0 241 70 241 214 0 121-77 176-162 253-36 33-107 92-116 133h291v118H910z"/></g></svg>