<svg xmlns="http://www.w3.org/2000/svg" height="1000" width="1718" viewBox="0 0 1804 1050"><path fill="#cec92a" d="M0 0h1718v1000H0z"/><path d="M541.002 874c-75 0-139-20-194-51l52-110c34 23 74 45 134 45 55 0 124-31 124-114 0-51-34-121-164-122l-110-1 28-367h371v117h-254l-10 135 20 1c193 10 271 117 271 223 0 135-107 244-268 244zM1094 874c-91 0-146-21-203-53l54-109c30 23 79 46 139 46 82 0 133-44 133-104 0-81-62-107-134-107h-73V430h74c69 0 112-34 112-88 0-45-34-84-108-84-65 0-108 31-131 51l-49-104c61-40 129-63 212-63 144 0 226 84 226 178 0 73-39 129-114 157v2c78 15 137 73 137 172 0 124-111 223-275 223z"/></svg>