<svg xmlns="http://www.w3.org/2000/svg" height="1000" width="1718" viewBox="0 0 1804 1050"><path fill="#cec92a" d="M0 0h1718v1000H0z"/><path d="M764.002 713v147h-136V713h-318V582l274-428h180v449h87v110h-87zm-136-435h-2c-3 12-23 55-51 99l-144 226h197V278zM1153 876c-190 0-258-133-258-320 0-245 113-413 335-413 40 0 76 5 105 12l-22 120c-19-8-55-17-95-17-97 0-170 71-179 213 24-21 69-48 144-48 115 0 209 77 209 209 0 141-94 244-239 244zm-13-342c-43 0-78 17-92 39-8 12-8 39-8 60 0 67 38 132 108 132 68 0 103-57 103-118 0-66-43-113-111-113z"/></svg>