<svg xmlns="http://www.w3.org/2000/svg" height="1000" width="1718" viewBox="0 0 1804 1050"><path fill="#f68f4b" d="M0 0h1718v1000H0z"/><path d="M576.002 876c-157 0-246-94-246-201 0-94 53-149 121-184-61-38-99-81-99-154 0-117 106-198 227-198 124 0 227 61 227 182 0 66-34 117-100 157 65 31 122 87 122 180 0 134-107 218-252 218zm-12-336c-46 18-92 64-92 119 0 58 38 113 106 113 67 0 104-47 104-103 0-64-58-99-118-129zm17-299c-55 0-90 34-90 83 0 58 58 89 103 108 37-17 77-58 77-102 0-49-32-89-90-89zM910 860v-93c18-82 99-154 193-236 47-41 98-90 98-158 0-61-40-110-117-110-62 0-105 45-122 64l-74-98c68-59 131-87 226-87 124 0 241 70 241 214 0 121-77 176-162 253-36 33-107 92-116 133h291v118H910z"/></svg>