<?xml version="1.0" encoding="utf-8"?>
<!-- Generator: Adobe Illustrator 21.0.2, SVG Export Plug-In . SVG Version: 6.00 Build 0)  -->
<svg version="1.2" baseProfile="tiny" id="Calque_1"
	 xmlns="http://www.w3.org/2000/svg" xmlns:xlink="http://www.w3.org/1999/xlink" x="0px" y="0px" viewBox="0 0 120 77"
	 overflow="scroll" xml:space="preserve">
<rect fill-rule="evenodd" fill="#FF5A00" width="120" height="77"/>
<g>
	<path d="M28.2896004,59.2118988V26.6587009c-2.5220013,1.9940987-6.5102997,3.9296989-9.2671013,5.1615982l-2.8154984-6.3348999
		c4.3403988-1.8183994,9.5605984-4.5751991,13.6665001-7.6835995h7.2143974v41.410099H28.2896004z"/>
	<path d="M57.9136009,60.3261986c-12.4937019,0-14.9570999-12.3173981-14.9570999-21.8779984
		c0-9.5610008,2.6982994-21.8784008,15.1913986-21.8784008c12.4937019,0,14.9575996,12.3174,14.9575996,21.8784008
		C73.1054993,48.0088005,70.4072037,60.3261986,57.9136009,60.3261986z M58.0307999,23.5498009
		c-5.9828987,0-6.158699,10.6753006-6.158699,14.8983994c0,4.1641006,0.2933998,14.9570999,6.158699,14.9570999
		c5.8656998,0,6.1000977-10.8516006,6.1000977-14.9570999C64.1308975,34.107399,63.955101,23.5498009,58.0307999,23.5498009z"/>
	<path d="M85.964798,60.2089996c-5.9237976,0-9.2089005-1.4658012-11.964798-3.1083984l3.2256012-6.3936005
		c1.7597961,1.2314987,4.6337967,2.6982994,8.1532974,2.6982994c4.8096008,0,7.8008041-2.8154984,7.8008041-6.3349991
		c0-4.7509995-3.6367035-6.3935013-7.8594055-6.3935013h-4.282196v-6.8623009h4.3407974
		c4.0468979,0,6.5692978-2.1118984,6.5692978-5.2788982c0-2.6396008-1.9950943-5.0444012-6.3348999-5.0444012
		c-3.8125,0-6.3349991,1.8184013-7.6835938,2.9912014L74.9375,20.3822994
		c3.5195007-2.346199,7.3320007-3.6952991,12.5526962-3.6952991c8.4463043,0,13.2558975,5.0443993,13.2558975,10.5580997
		c0,4.2817993-2.2870941,7.6835995-6.6864929,9.3262005v0.1171989c4.5752029,0.8799019,8.0360947,4.3993988,8.0360947,10.2060013
		C102.0956955,54.1679993,95.5839996,60.2089996,85.964798,60.2089996z"/>
</g>
<g>
</g>
</svg>
