<svg xmlns="http://www.w3.org/2000/svg" height="1000" width="1718" viewBox="0 0 1804 1050"><path fill="#ed1b2a" d="M0 0h1718v1000H0z"/><g fill="#fff"><path d="M320.802 824V324.503c-21.6 17.1-85.499 50.399-108.899 62.1l-33.3 17.1-43.2-97.199 38.7-18c73.799-34.2 142.199-77.4 170.999-99.899h110.7V824h-135zM857.2 840.2c-191.698 0-229.498-185.399-229.498-332.099 0-146.698 41.399-332.097 233.097-332.097 191.699 0 229.499 185.399 229.499 332.097 0 146.7-41.4 332.099-233.098 332.099zm1.8-557.096c-91.799 0-94.499 160.199-94.499 224.998 0 63.9 4.5 225.899 94.499 225.899 90 0 93.599-162.899 93.599-225.899 0-66.6-2.701-224.998-93.599-224.998zM1529.496 691.701V824h-122.399V691.701H1120.9V573.802l246.598-385.197h161.999v404.097h78.3v99h-78.301zm-122.399-391.497h-1.8c-2.7 10.8-20.7 49.5-45.899 89.099l-129.6 203.398h177.299V300.204z"/></g></svg>