<svg xmlns="http://www.w3.org/2000/svg" height="1000" width="1718" viewBox="0 0 1804 1050"><path fill="#bb4b9c" d="M0 0h1718v1000H0z"/><g fill="#fff"><path d="M320.802 824V324.503c-21.6 17.1-85.499 50.399-108.899 62.1l-33.3 17.1-43.2-97.199 38.7-18c73.799-34.2 142.199-77.4 170.999-99.899h110.7V824h-135zM1025.498 691.701V824H903.099V691.701H616.902V573.802l246.597-385.197h161.999v404.097h78.3v99h-78.3zM903.099 300.204h-1.8c-2.7 10.8-20.7 49.5-45.899 89.099L725.8 592.701h177.298V300.204zM1328.798 836.6c-67.5 0-125.1-18-174.6-45.899l46.8-98.999c30.601 20.699 66.6 40.499 120.6 40.499 49.5 0 111.6-27.899 111.6-102.599 0-45.9-30.601-108.899-147.6-109.799l-98.999-.9 25.199-330.298h333.898v105.299h-228.599l-9 121.5 18 .9c173.698 9 243.898 105.299 243.898 200.698.001 121.499-96.299 219.598-241.197 219.598z"/></g></svg>