<svg xmlns="http://www.w3.org/2000/svg" height="1000" width="1718" viewBox="0 0 1804 1050"><path fill="#ed1b2a" d="M0 0h1718v1000H0z"/><g fill="#fff"><path d="M320.802 824V324.503c-21.6 17.1-85.499 50.399-108.899 62.1l-33.3 17.1-43.2-97.199 38.7-18c73.799-34.2 142.199-77.4 170.999-99.899h110.7V824h-135zM1025.498 691.701V824H903.099V691.701H616.902V573.802l246.597-385.197h161.999v404.097h78.3v99h-78.3zM903.099 300.204h-1.8c-2.7 10.8-20.7 49.5-45.899 89.099L725.8 592.701h177.298V300.204zM1362.098 824h-144.899c0-83.699 22.5-137.699 78.3-241.198l154.799-287.998H1141.6v-106.2h444.598v103.499c-139.502 242.099-224.1 431.998-224.1 531.897z"/></g></svg>