<svg xmlns="http://www.w3.org/2000/svg" height="1000" width="1718" viewBox="0 0 1804 1050"><path fill="#f68f4b" d="M0 0h1718v1000H0z"/><path d="M148.903 824v-83.699c16.2-73.8 89.099-138.6 173.699-212.398 42.3-36.9 88.199-81 88.199-142.199 0-54.9-36-99-105.299-99-55.799 0-94.5 40.5-109.799 57.6l-66.6-88.199c61.2-53.1 117.899-78.3 203.399-78.3 111.599 0 216.898 63 216.898 192.599 0 108.899-69.299 158.398-145.799 227.698-32.399 29.7-96.299 82.8-104.399 119.699H561.1V824H148.903zM818.5 836.6c-81.899 0-131.399-18.899-182.699-47.699l48.6-98.1c27 20.7 71.1 41.399 125.1 41.399 73.798 0 119.699-39.6 119.699-93.599 0-72.9-55.8-96.3-120.599-96.3h-65.699V437.002h66.6c62.099 0 100.798-30.6 100.798-79.199 0-40.5-30.6-75.6-97.199-75.6-58.5 0-97.199 27.9-117.899 45.9l-44.1-93.6c54.899-36 116.1-56.7 190.799-56.7 129.598 0 203.398 75.6 203.398 160.199 0 65.699-35.1 116.099-102.6 141.299v1.8c70.2 13.5 123.3 65.699 123.3 154.799-.001 111.601-99.9 200.7-247.499 200.7zM1529.496 691.701V824h-122.399V691.701H1120.9V573.802l246.598-385.197h161.999v404.097h78.3v99h-78.301zm-122.399-391.497h-1.8c-2.7 10.8-20.7 49.5-45.899 89.099l-129.6 203.398h177.299V300.204z"/></svg>