<svg xmlns="http://www.w3.org/2000/svg" height="1000" width="1718" viewBox="0 0 1804 1050"><path fill="#cec92a" d="M0 0h1718v1000H0z"/><path d="M314.502 836.6c-81.899 0-131.399-18.899-182.699-47.699l48.6-98.1c27 20.7 71.1 41.399 125.099 41.399 73.799 0 119.7-39.6 119.7-93.599 0-72.9-55.8-96.3-120.6-96.3h-65.7V437.002h66.6c62.1 0 100.799-30.6 100.799-79.199 0-40.5-30.6-75.6-97.199-75.6-58.5 0-97.199 27.9-117.899 45.9l-44.1-93.6c54.9-36 116.099-56.7 190.799-56.7 129.599 0 203.398 75.6 203.398 160.199 0 65.699-35.1 116.099-102.6 141.299v1.8C508.9 494.601 562 546.8 562 635.9c0 111.601-99.899 200.7-247.498 200.7zM824.8 824V324.503c-21.601 17.1-85.5 50.399-108.899 62.1l-33.3 17.1-43.2-97.199 38.7-18c73.8-34.2 142.199-77.4 170.999-99.899h110.699V824H824.8zM1362.098 824h-144.899c0-83.699 22.5-137.699 78.3-241.198l154.799-287.998H1141.6v-106.2h444.598v103.499c-139.502 242.099-224.1 431.998-224.1 531.897z"/></svg>