<svg xmlns="http://www.w3.org/2000/svg" height="1000" width="1718" viewBox="0 0 1804 1050"><path fill="#e0b03b" d="M0 0h1718v1000H0z"/><path d="M320.802 824V324.503c-21.6 17.1-85.499 50.399-108.899 62.1l-33.3 17.1-43.2-97.199 38.7-18c73.799-34.2 142.199-77.4 170.999-99.899h110.7V824h-135zM781.6 834.8c-36 0-68.399-4.5-94.499-10.8l19.8-107.999c17.1 7.2 49.5 15.3 85.499 15.3 87.299 0 152.999-63.899 161.099-191.699-21.601 18.9-62.1 43.2-129.599 43.2-103.499 0-188.099-69.3-188.099-188.099 0-126.899 84.6-219.599 215.099-219.599 170.999 0 232.198 119.699 232.198 287.998 0 220.499-101.7 371.698-301.498 371.698zm73.8-559.796c-61.199 0-92.699 51.299-92.699 106.199 0 59.399 38.699 101.699 99.899 101.699 38.699 0 70.199-15.3 82.799-35.1 7.2-10.8 7.2-35.1 7.2-54 0-60.299-34.201-118.798-97.199-118.798zM1375.598 838.4c-170.999 0-232.199-119.699-232.199-287.998 0-220.499 101.699-371.698 301.498-371.698 36 0 68.399 4.5 94.5 10.8l-19.8 107.999c-17.101-7.2-49.5-15.3-85.5-15.3-87.299 0-152.999 63.899-161.099 191.699 21.6-18.9 62.1-43.2 129.599-43.2 103.5 0 188.099 69.299 188.099 188.099-.001 126.899-84.599 219.599-215.098 219.599zm-11.701-307.798c-38.7 0-70.199 15.301-82.8 35.1-7.2 10.801-7.2 35.101-7.2 54 0 60.3 34.2 118.8 97.2 118.8 61.199 0 92.699-51.3 92.699-106.199.001-59.401-38.699-101.701-99.899-101.701z"/></svg>