<svg xmlns="http://www.w3.org/2000/svg" height="1000" width="1718" viewBox="0 0 1804 1050"><path fill="#9c983a" d="M0 0h1718v1000H0z"/><g fill="#fff"><path d="M320.802 824V324.503c-21.6 17.1-85.499 50.399-108.899 62.1l-33.3 17.1-43.2-97.199 38.7-18c73.799-34.2 142.199-77.4 170.999-99.899h110.7V824h-135zM856.299 838.4c-141.299 0-221.398-84.6-221.398-180.899 0-84.599 47.7-134.099 108.899-165.599-54.899-34.2-89.1-72.899-89.1-138.599 0-105.299 95.399-178.199 204.299-178.199 111.599 0 204.298 54.899 204.298 163.799 0 59.399-30.6 105.299-89.999 141.299 58.499 27.899 109.799 78.3 109.799 161.999.001 120.6-96.298 196.199-226.798 196.199zM845.5 536.002c-41.399 16.199-82.799 57.6-82.799 107.1 0 52.199 34.199 101.699 95.399 101.699 60.298 0 93.598-42.3 93.598-92.699 0-57.6-52.199-89.1-106.198-116.1zm15.299-269.098c-49.499 0-80.999 30.6-80.999 74.7 0 52.199 52.199 80.099 92.699 97.199 33.3-15.3 69.3-52.2 69.3-91.799 0-44.101-28.8-80.1-81-80.1zM1361.197 840.2c-191.698 0-229.498-185.399-229.498-332.099 0-146.698 41.399-332.097 233.098-332.097s229.499 185.399 229.499 332.097c0 146.7-41.4 332.099-233.099 332.099zm1.8-557.096c-91.799 0-94.499 160.199-94.499 224.998 0 63.9 4.5 225.899 94.499 225.899 90 0 93.6-162.899 93.6-225.899 0-66.6-2.701-224.998-93.6-224.998z"/></g></svg>