<svg xmlns="http://www.w3.org/2000/svg" height="1000" width="1718" viewBox="0 0 1804 1050"><path fill="#b43c95" d="M0 0h1718v1000H0z"/><g fill="#fff"><path d="M148.903 824v-83.699c16.2-73.8 89.099-138.6 173.699-212.398 42.3-36.9 88.199-81 88.199-142.199 0-54.9-36-99-105.299-99-55.799 0-94.5 40.5-109.799 57.6l-66.6-88.199c61.2-53.1 117.899-78.3 203.399-78.3 111.599 0 216.898 63 216.898 192.599 0 108.899-69.299 158.398-145.799 227.698-32.399 29.7-96.299 82.8-104.399 119.699H561.1V824H148.903zM824.8 836.6c-67.5 0-125.1-18-174.6-45.899l46.8-98.999C727.601 712.4 763.6 732.2 817.6 732.2c49.5 0 111.599-27.899 111.599-102.599 0-45.9-30.601-108.899-147.599-109.799l-98.999-.9L707.8 188.604h333.898v105.299H813.1l-9 121.5 18 .9c173.698 9 243.898 105.299 243.898 200.698 0 121.5-96.3 219.599-241.198 219.599zM1361.197 840.2c-191.698 0-229.498-185.399-229.498-332.099 0-146.698 41.399-332.097 233.098-332.097s229.499 185.399 229.499 332.097c0 146.7-41.4 332.099-233.099 332.099zm1.8-557.096c-91.799 0-94.499 160.199-94.499 224.998 0 63.9 4.5 225.899 94.499 225.899 90 0 93.6-162.899 93.6-225.899 0-66.6-2.701-224.998-93.6-224.998z"/></g></svg>