<svg xmlns="http://www.w3.org/2000/svg" height="1000" width="1718" viewBox="0 0 1804 1050"><path fill="#f59eb3" d="M0 0h1718v1000H0z"/><path d="M148.903 824v-83.699c16.2-73.8 89.099-138.6 173.699-212.398 42.3-36.9 88.199-81 88.199-142.199 0-54.9-36-99-105.299-99-55.799 0-94.5 40.5-109.799 57.6l-66.6-88.199c61.2-53.1 117.899-78.3 203.399-78.3 111.599 0 216.898 63 216.898 192.599 0 108.899-69.299 158.398-145.799 227.698-32.399 29.7-96.299 82.8-104.399 119.699H561.1V824H148.903zM781.6 834.8c-36 0-68.399-4.5-94.499-10.8l19.8-107.999c17.1 7.2 49.5 15.3 85.499 15.3 87.299 0 152.999-63.899 161.099-191.699-21.601 18.9-62.1 43.2-129.599 43.2-103.499 0-188.099-69.3-188.099-188.099 0-126.899 84.6-219.599 215.099-219.599 170.999 0 232.198 119.699 232.198 287.998 0 220.499-101.7 371.698-301.498 371.698zm73.8-559.796c-61.199 0-92.699 51.299-92.699 106.199 0 59.399 38.699 101.699 99.899 101.699 38.699 0 70.199-15.3 82.799-35.1 7.2-10.8 7.2-35.1 7.2-54 0-60.299-34.201-118.798-97.199-118.798zM1156.898 824v-83.699c16.2-73.8 89.1-138.6 173.699-212.398 42.3-36.9 88.199-81 88.199-142.199 0-54.9-36-99-105.299-99-55.8 0-94.5 40.5-109.8 57.6l-66.6-88.199c61.2-53.1 117.899-78.3 203.398-78.3 111.6 0 216.898 63 216.898 192.599 0 108.899-69.299 158.398-145.799 227.698-32.399 29.7-96.299 82.8-104.399 119.699h261.898V824h-412.195z"/></svg>