<?xml version="1.0" encoding="utf-8"?>
<!-- Generator: Adobe Illustrator 21.0.2, SVG Export Plug-In . SVG Version: 6.00 Build 0)  -->
<svg version="1.2" baseProfile="tiny" id="Calque_1"
	 xmlns="http://www.w3.org/2000/svg" xmlns:xlink="http://www.w3.org/1999/xlink" x="0px" y="0px" viewBox="0 0 120 77"
	 overflow="scroll" xml:space="preserve">
<g>
	<rect fill-rule="evenodd" fill="#00643C" width="120" height="77"/>
</g>
<g>
	<path fill="#FFFFFF" d="M25.9263,60.2089996c-5.9242992,0-9.2089996-1.4658012-11.9659004-3.1083984l3.2261009-6.3936005
		c1.7598,1.2314987,4.6337986,2.6982994,8.1532993,2.6982994c4.8096008,0,7.8007984-2.8154984,7.8007984-6.3349991
		c0-4.7509995-3.6366978-6.3935013-7.8597984-6.3935013h-4.2817993v-6.8623009h4.3407993
		c4.0468998,0,6.5694008-2.1118984,6.5694008-5.2788982c0-2.6396008-1.9946003-5.0444012-6.335001-5.0444012
		c-3.8125,0-6.3348999,1.8184013-7.6835995,2.9912014L14.8989,20.3822994
		c3.5196009-2.346199,7.3321009-3.6952991,12.5523005-3.6952991c8.4462986,0,13.2558002,5.0443993,13.2558002,10.5580997
		c0,4.2817993-2.2876015,7.6835995-6.6865005,9.3262005v0.1171989c4.5751991,0.8799019,8.0356979,4.3993988,8.0356979,10.2060013
		C42.0561981,54.1679993,35.5453987,60.2089996,25.9263,60.2089996z"/>
	<path fill="#FFFFFF" d="M58.330101,59.2118988h-9.4434013c0-5.4550972,1.466301-8.9745979,5.1030006-15.7196999
		l10.0884018-18.7694988h-20.118103v-6.9209003h28.975502v6.7451C63.8437996,40.3251991,58.330101,52.7011986,58.330101,59.2118988z
		"/>
	<path fill="#FFFFFF" d="M89.5019989,60.3261986c-9.2089996,0-14.4288025-5.5136986-14.4288025-11.7890968
		c0-5.5137024,3.1084061-8.9746017,7.0967026-11.0273018c-3.5771027-2.2290001-5.8066025-5.0444984-5.8066025-9.3262005
		c0-6.8627987,6.217804-11.6138,13.3143997-11.6138c7.2735062,0,13.3154984,3.5781002,13.3154984,10.6753006
		c0,3.8710995-1.9951935,7.1558018-5.8661957,9.5020008c3.8125,1.8182983,7.1561966,5.3378983,7.1561966,10.7929001
		C104.2831955,55.3993988,98.0077972,60.3261986,89.5019989,60.3261986z M88.7987976,40.3838005
		c-2.6981964,1.0556984-5.3964996,3.9883003-5.3964996,7.214798c0,3.4014015,2.2285995,6.6280022,6.2168045,6.6280022
		c3.9296951,0,6.1006012-2.7569008,6.1006012-6.0419998C95.7197037,44.4306984,92.3183975,42.1436005,88.7987976,40.3838005z
		 M89.794899,22.5527c-3.2256012,0-5.2782974,1.9941998-5.2782974,4.8682003c0,3.4022999,3.4013977,5.5137005,6.0419998,6.6279011
		c2.169899-0.9970016,4.5156021-3.6953011,4.5156021-6.2759018C95.0742035,24.8988991,93.1973038,22.5527,89.794899,22.5527z"/>
</g>
<g>
</g>
</svg>
