<svg xmlns="http://www.w3.org/2000/svg" height="1000" width="1718" viewBox="0 0 1804 1050"><path fill="#006cb8" d="M0 0h1718v1000H0z"/><g fill="#fff"><path d="M314.502 836.6c-81.899 0-131.399-18.899-182.699-47.699l48.6-98.1c27 20.7 71.1 41.399 125.099 41.399 73.799 0 119.7-39.6 119.7-93.599 0-72.9-55.8-96.3-120.6-96.3h-65.7V437.002h66.6c62.1 0 100.799-30.6 100.799-79.199 0-40.5-30.6-75.6-97.199-75.6-58.5 0-97.199 27.9-117.899 45.9l-44.1-93.6c54.9-36 116.099-56.7 190.799-56.7 129.599 0 203.398 75.6 203.398 160.199 0 65.699-35.1 116.099-102.6 141.299v1.8C508.9 494.601 562 546.8 562 635.9c0 111.601-99.899 200.7-247.498 200.7zM871.6 838.4c-170.999 0-232.199-119.699-232.199-287.998 0-220.499 101.699-371.698 301.498-371.698 36 0 68.399 4.5 94.5 10.8l-19.8 107.999c-17.101-7.2-49.5-15.3-85.5-15.3-87.299.001-152.999 63.9-161.099 191.699 21.6-18.9 62.1-43.2 129.598-43.2 103.5 0 188.099 69.299 188.099 188.099 0 126.899-84.598 219.599-215.097 219.599zm-11.701-307.798c-38.7 0-70.199 15.301-82.799 35.1-7.2 10.801-7.2 35.101-7.2 54 0 60.3 34.2 118.8 97.2 118.8 61.199 0 92.699-51.3 92.699-106.199 0-59.401-38.7-101.701-99.9-101.701zM1328.798 824V324.503c-21.601 17.1-85.5 50.399-108.899 62.1l-33.3 17.1-43.2-97.199 38.7-18c73.8-34.2 142.199-77.4 170.999-99.899h110.699V824h-134.999z"/></g></svg>