<svg xmlns="http://www.w3.org/2000/svg" width="120" height="77" viewBox="0 0 126 81"><path fill="#82c8e6" d="M0 0h1718v1000H0z"/><path class="st1" d="M26.6 59.2V26.7c-2.5 2-6.5 3.9-9.3 5.2l-2.8-6.3c4.3-1.8 9.6-4.6 13.7-7.7h7.2v41.4h-8.8zM56.4 60.2C45.1 60.2 41 52.3 41 41.4c0-14.4 6.7-24.7 20-24.7 2.3 0 4.5.3 6.2.7l-1.3 7c-1.1-.5-3.3-1-5.7-1-5.8 0-10 4.6-10.6 13 1.4-1.2 4.1-2.8 8.6-2.8 6.9 0 12.4 4.5 12.4 12.3 0 8.2-5.5 14.3-14.2 14.3zm-.8-20.1c-2.6 0-4.8 1-5.6 2.3-.5.7-.5 2.3-.5 3.6 0 3.9 2.3 7.7 6.5 7.7 4.1 0 6.2-3.3 6.2-6.9.1-3.9-2.5-6.7-6.6-6.7zM88.6 60.3c-9.2 0-14.4-5.5-14.4-11.8 0-5.5 3.1-9 7.1-11-3.6-2.2-5.8-5-5.8-9.3 0-6.9 6.2-11.6 13.3-11.6 7.3 0 13.3 3.6 13.3 10.7 0 3.9-2 7.2-5.9 9.5 3.8 1.8 7.2 5.3 7.2 10.8 0 7.8-6.2 12.7-14.8 12.7zm-.7-19.9c-2.7 1.1-5.4 4-5.4 7.2 0 3.4 2.2 6.6 6.2 6.6 3.9 0 6.1-2.8 6.1-6 .1-3.8-3.3-6.1-6.9-7.8zm1-17.8c-3.2 0-5.3 2-5.3 4.9 0 3.4 3.4 5.5 6 6.6 2.2-1 4.5-3.7 4.5-6.3.1-2.9-1.8-5.2-5.2-5.2z"/></svg>
