<svg xmlns="http://www.w3.org/2000/svg" width="120" height="77" viewBox="0 0 126 81"><path fill="#d2d200" d="M0 0h1718v1000H0z"/><path d="M25.2 59.5c-5.9 0-9.2-1.5-12-3.1l3.2-6.4c1.8 1.2 4.6 2.7 8.2 2.7 4.8 0 7.8-2.8 7.8-6.3 0-4.8-3.6-6.4-7.9-6.4h-4.3v-6.9h4.3c4 0 6.6-2.1 6.6-5.3 0-2.6-2-5-6.3-5-3.8 0-6.3 1.8-7.7 3l-3-6.1c3.5-2.3 7.3-3.7 12.6-3.7C35.1 16 40 21 40 26.6c0 4.3-2.3 7.7-6.7 9.3v.1c4.6.9 8 4.4 8 10.2 0 7.2-6.5 13.3-16.1 13.3zM58.4 59.5c-4.8 0-8.5-1.1-11.7-3L50 50c2.3 1.6 4.6 2.6 7.9 2.6 3.2 0 7.3-1.9 7.3-6.8 0-3-2-7.1-9.6-7.2-2.3 0-5.1-.1-6.5-.1L50.8 17h21.8v7H57.7l-.6 7.9c.2 0 .8.1 1.2.1 11.3.5 15.9 6.9 15.9 13.1 0 7.8-6.3 14.4-15.8 14.4zM90.9 59.5c-5.9 0-9.2-1.5-12-3.1l3.2-6.4c1.8 1.2 4.6 2.7 8.2 2.7 4.8 0 7.8-2.8 7.8-6.3 0-4.8-3.6-6.4-7.9-6.4H86v-6.9h4.3c4 0 6.6-2.1 6.6-5.3 0-2.6-2-5-6.3-5-3.8 0-6.3 1.8-7.7 3l-3-6.1c3.5-2.3 7.3-3.7 12.6-3.7 8.4 0 13.3 5 13.3 10.6 0 4.3-2.3 7.7-6.7 9.3v.1c4.6.9 8 4.4 8 10.2-.1 7.2-6.6 13.3-16.2 13.3z"/></svg>
