<svg xmlns="http://www.w3.org/2000/svg" viewBox="0 0 126 81" width="120" height="77"><path fill-rule="evenodd" clip-rule="evenodd" fill="#ffbe00" d="M0 0h120v77H0z"/><path d="M13.6 59.2v-5.4c1.1-4.8 5.8-9.2 11.3-14 2.8-2.4 5.7-5.4 5.7-9.4 0-3.6-2.3-6.6-6.9-6.6-3.6 0-6.2 2.6-7.1 3.8l-4.3-5.7c4-3.5 7.7-5.1 13.2-5.1 7.3 0 14.1 4.2 14.1 12.7 0 7.1-4.5 10.4-9.5 14.9-2.1 1.9-6.3 5.6-6.8 8h17.1v6.9H13.6zM60.8 60.2c-11.3 0-15.4-7.9-15.4-18.8 0-14.4 6.7-24.7 20-24.7 2.3 0 4.5.3 6.2.7l-1.3 7c-1.1-.5-3.3-1-5.7-1-5.8 0-10 4.6-10.6 12.9 1.4-1.2 4.1-2.8 8.6-2.8C69.5 33.5 75 38 75 45.7c-.1 8.4-5.6 14.5-14.2 14.5zm-.9-20.1c-2.6 0-4.7 1-5.6 2.3-.5.7-.5 2.3-.5 3.6 0 3.9 2.3 7.7 6.5 7.7 4.1 0 6.2-3.3 6.2-6.9.1-3.9-2.5-6.7-6.6-6.7zM92.5 60.3C80 60.3 77.6 48 77.6 38.5s2.7-21.9 15.2-21.9 14.9 12.3 14.9 21.9-2.7 21.8-15.2 21.8zm.1-36.7c-6 0-6.2 10.7-6.2 14.9 0 4.2.3 14.9 6.2 14.9s6.1-10.8 6.1-14.9c0-4.4-.1-14.9-6.1-14.9z"/></svg>