<svg xmlns="http://www.w3.org/2000/svg" width="120" height="77" viewBox="0 0 126 81"><path fill-rule="evenodd" clip-rule="evenodd" fill="#3C91DC" d="M0 0h120v77H0z"/><g fill="#FFF"><path d="M13.912 59.186v-5.449c1.055-4.805 5.802-9.201 11.31-14.006 2.754-2.403 5.743-5.391 5.743-9.375 0-3.575-2.344-6.563-6.856-6.563-3.633 0-6.153 2.637-7.149 3.75l-4.336-5.742c3.985-3.458 7.677-5.099 13.244-5.099 7.267 0 14.123 4.219 14.123 12.658 0 7.09-4.512 10.43-9.494 14.944-2.109 1.934-6.27 5.566-6.797 7.969h17.053v6.914H13.912zM57.919 60.184c-4.805 0-8.497-1.057-11.662-2.99l3.34-6.445c2.286 1.582 4.629 2.637 7.853 2.637s7.266-1.934 7.266-6.797c0-2.99-1.992-7.092-9.61-7.209-2.344 0-5.099-.059-6.446-.059l1.641-21.506h21.742v6.915H57.158l-.586 7.853c.234 0 .762.059 1.172.059 11.31.527 15.881 6.915 15.881 13.127 0 7.909-6.271 14.415-15.706 14.415zM87.395 60.299c-2.344 0-4.454-.291-6.212-.703l1.289-7.031c1.113.469 3.282.996 5.685.996 5.801 0 10.021-4.629 10.606-12.951-1.406 1.23-4.103 2.813-8.556 2.813-6.856 0-12.365-4.511-12.365-12.247 0-8.263 5.509-14.357 14.182-14.357 11.311 0 15.354 7.853 15.354 18.811-.001 14.356-6.739 24.669-19.983 24.669zm4.98-36.976c-4.102 0-6.211 3.34-6.211 6.915 0 3.867 2.578 6.681 6.68 6.681 2.637 0 4.747-.997 5.567-2.286.47-.703.47-2.344.47-3.574 0-3.928-2.286-7.736-6.506-7.736z"/></g></svg>