<?xml version="1.0" encoding="utf-8"?>
<!-- Generator: Adobe Illustrator 21.0.2, SVG Export Plug-In . SVG Version: 6.00 Build 0)  -->
<svg version="1.2" baseProfile="tiny" id="Calque_1"
	 xmlns="http://www.w3.org/2000/svg" xmlns:xlink="http://www.w3.org/1999/xlink" x="0px" y="0px" viewBox="0 0 120 77"
	 overflow="scroll" xml:space="preserve">
<g>
	<rect fill-rule="evenodd" fill="#640082" width="120" height="77"/>
</g>
<g>
	<g>
		<path fill="#FFFFFF" d="M31.3423004,69.9863281c-3.3862,0-6.4341011-0.4228516-8.9736004-1.015625l1.8623009-10.1592026
			c1.6083984,0.6777992,4.7406998,1.4394989,8.2119007,1.4394989c8.3807983,0,14.4759979-6.6875,15.3226967-18.7089996
			c-2.0321999,1.7773018-5.9261971,4.0634995-12.3597984,4.0634995c-9.9048004,0-17.862299-6.5186005-17.862299-17.6933994
			c0-11.9359999,7.9574986-20.7402,20.4862995-20.7402c16.3388977,0,22.1801987,11.3437004,22.1801987,27.174799
			C60.2099991,55.0868988,50.4746017,69.9863281,31.3423004,69.9863281z M38.5381012,16.5683994
			c-5.9263,0-8.9736004,4.8255997-8.9736004,9.9897003c0,5.5874004,3.7245998,9.6508999,9.6508007,9.6508999
			c3.8090973,0,6.8569984-1.4394989,8.0419998-3.3017998c0.6772995-1.0156002,0.6772995-3.3866997,0.6772995-5.1639996
			C47.9346008,22.0713005,44.6333008,16.5683994,38.5381012,16.5683994z"/>
		<path fill="#FFFFFF" d="M79.0058975,69.8173828c-6.9413986,0-12.2753983-1.5244141-16.8466988-4.3173828l4.8251991-9.3125
			c3.3017044,2.2860985,6.6875,3.8096008,11.3437042,3.8096008c4.6562958,0,10.4981003-2.7940025,10.4981003-9.8203011
			c0-4.3173981-2.8788986-10.2431984-13.8838043-10.4122009c-3.3866959,0-7.3652954-0.0848999-9.3125-0.0848999L68,8.6107998
			h31.4082031v9.9897995H77.9052963l-0.8466949,11.3437004c0.3378983,0,1.1006012,0.085001,1.6933975,0.085001
			c16.3377991,0.7616997,22.9413986,9.9892998,22.9413986,18.9628983
			C101.6933975,60.419899,92.6348038,69.8173828,79.0058975,69.8173828z"/>
	</g>
</g>
<g>
</g>
</svg>
