<svg xmlns="http://www.w3.org/2000/svg" height="1000" width="1718" viewBox="0 0 1804 1050"><path fill="#ffcd02" d="M0 0h1718v1000H0z"/><path d="M493.002 872c-40 0-76-5-105-12l22-120c19 8 55 17 95 17 97 0 170-71 179-213-24 21-69 48-144 48-115 0-209-77-209-209 0-141 94-244 239-244 190 0 258 133 258 320 0 245-113 413-335 413zm82-622c-68 0-103 57-103 118 0 66 43 113 111 113 43 0 78-17 92-39 8-12 8-39 8-60 0-67-38-132-108-132zM910 860v-93c18-82 99-154 193-236 47-41 98-90 98-158 0-61-40-110-117-110-62 0-105 45-122 64l-74-98c68-59 131-87 226-87 124 0 241 70 241 214 0 121-77 176-162 253-36 33-107 92-116 133h291v118H910z"/></svg>