<?xml version="1.0" encoding="UTF-8"?>
<svg id="Calque_1" data-name="Calque 1" xmlns="http://www.w3.org/2000/svg" baseProfile="tiny" version="1.2" viewBox="0 0 120 77">
  <rect width="120" height="77" fill="#a50034" stroke-width="0"/>
  <g>
    <path d="M14.7723996,59.2073683v-5.4554666c1.0560837-4.8098982,5.8074255-9.209695,11.3214485-14.0195932,2.756908-2.405156,5.7486622-5.3967033,5.7486622-9.385571,0-3.5783524-2.3463928-6.5698997-6.8630953-6.5698997-3.6371157,0-6.1593844,2.6397953-7.1567048,3.7542284l-4.3406197-5.7486622c3.9888677-3.4610328,7.6843328-5.1035077,13.2569121-5.1035077,7.2738175,0,14.1369129,4.223507,14.1369129,12.6705209,0,7.0979415-4.5169095,10.4416547-9.5026837,14.9581503-2.1117535,1.9358775-6.2767041,5.5729932-6.804539,7.9777354h17.0699038v6.9220655H14.7723996Z" fill="#fff" stroke-width="0"/>
    <path d="M71.0727901,50.5844784v8.6228899h-8.2123746v-8.6228899h-18.6540293v-7.6847466l16.0729973-25.1061955h10.7934067v26.3381552h4.8686615v6.452787h-4.8686615ZM62.8604155,25.0673538h-.1175266c-.175876.7039178-1.3490724,3.2263935-2.9915473,5.8074255l-8.4470139,13.2569121h11.5560878v-19.0643376Z" fill="#fff" stroke-width="0"/>
    <path d="M88.8979261,60.2046887c-4.8098982,0-8.5053634-1.0560837-11.6732005-2.9919611l3.3437131-6.4523732c2.2876295,1.5837117,4.6340222,2.6397953,7.8602088,2.6397953,3.2266004,0,7.2742314-1.9358775,7.2742314-6.804539,0-2.9919611-1.9946408-7.0979415-9.6206241-7.2154681-2.3463928,0-5.1033008-.0583494-6.4523732-.0583494l1.6424749-21.5282569h21.7626893v6.9218586h-14.8993871l-.5868051,7.8604157c.2346393,0,.7626811.0585564,1.1731964.0585564,11.3214485.5280418,15.8971213,6.9220655,15.8971213,13.1397994,0,7.9189721-6.276911,14.4305223-15.7212453,14.4305223Z" fill="#fff" stroke-width="0"/>
  </g>
</svg>