<?xml version="1.0" encoding="UTF-8"?>
<svg id="Calque_1" xmlns="http://www.w3.org/2000/svg" baseProfile="tiny" version="1.2" viewBox="0 0 120 77">
  <!-- Generator: Adobe Illustrator 29.0.1, SVG Export Plug-In . SVG Version: 2.1.0 Build 192)  -->
  <rect width="120" height="77" fill="#a50034"/>
  <g>
    <path d="M26.043,60.209c-5.9243,0-9.209-1.4658-11.9659-3.1084l3.2261-6.3936c1.7598,1.2315,4.6338,2.6983,8.1529,2.6983,4.81,0,7.8012-2.8155,7.8012-6.335,0-4.751-3.6367-6.3935-7.8598-6.3935h-4.2818v-6.8623h4.3404c4.0473,0,6.5693-2.1119,6.5693-5.2789,0-2.6396-1.9941-5.0444-6.3345-5.0444-3.8125,0-6.3345,1.8184-7.6836,2.9912l-2.9917-6.1001c3.5196-2.3462,7.3321-3.6953,12.5523-3.6953,8.4463,0,13.2558,5.0444,13.2558,10.5581,0,4.2818-2.2876,7.6836-6.6865,9.3262v.1172c4.5752.8799,8.0357,4.3994,8.0357,10.206,0,7.2735-6.5108,13.3145-16.1299,13.3145Z" fill="#fff"/>
    <path d="M61.1221,60.209c-11.3203,0-15.3677-7.8594-15.3677-18.8281,0-14.3706,6.7451-24.6939,20.0015-24.6939,2.3457,0,4.457.2935,6.2168.7041l-1.2901,7.0386c-1.1142-.4693-3.2842-.9971-5.6894-.9971-5.8067,0-10.0298,4.6338-10.6167,12.9624,1.4077-1.2314,4.1059-2.8154,8.5639-2.8154,6.8623,0,12.376,4.5171,12.376,12.2593,0,8.2705-5.5137,14.3701-14.1943,14.3701ZM60.3008,40.0908c-2.6397,0-4.751.9971-5.5723,2.2871-.4692.7041-.4692,2.3467-.4692,3.5782,0,3.9296,2.2876,7.7421,6.5107,7.7421,4.106,0,6.2173-3.3427,6.2173-6.9209,0-3.8711-2.581-6.6865-6.6865-6.6865Z" fill="#fff"/>
    <path d="M88.3877,60.209c-5.9248,0-9.209-1.4658-11.9658-3.1084l3.2265-6.3936c1.7598,1.2315,4.6329,2.6983,8.1524,2.6983,4.8105,0,7.8008-2.8155,7.8008-6.335,0-4.751-3.6368-6.3935-7.8594-6.3935h-4.2813v-6.8623h4.3399c4.0469,0,6.5693-2.1119,6.5693-5.2789,0-2.6396-1.9941-5.0444-6.3349-5.0444-3.8125,0-6.334,1.8184-7.6836,2.9912l-2.9912-6.1001c3.5195-2.3462,7.332-3.6953,12.5517-3.6953,8.4473,0,13.2559,5.0444,13.2559,10.5581,0,4.2818-2.2871025,7.6836-6.6856,9.3262v.1172c4.5741974.8799,8.0351974,4.3994,8.0351974,10.206,0,7.2735-6.5107974,13.3145-16.1298974,13.3145Z" fill="#fff"/>
  </g>
</svg>