<svg width="52" height="52" viewBox="0 0 52 52" fill="none" xmlns="http://www.w3.org/2000/svg">
<g clip-path="url(#clip0_329_242)">
<path d="M0 26C0 11.6396 11.6413 0 26 0C40.3605 0 52 11.6396 52 26C52 40.3605 40.3605 52.0001 26 52.0001C11.6413 52.0001 0 40.3605 0 26Z" fill="#A50034"/>
<path d="M14.8489 39.7468V18.0964C13.1714 19.4229 10.5183 20.7103 8.68447 21.5294L6.81152 17.3163C9.69912 16.1071 13.1714 14.2733 15.901 12.2058H20.7006V39.7468H14.8489ZM32.7885 40.4096C29.5882 40.4096 27.1306 39.7077 25.0247 38.4203L27.2478 34.129C28.769 35.1827 30.3308 35.8846 32.4758 35.8846C34.6207 35.8846 37.3129 34.5972 37.3129 31.3596C37.3129 29.3703 35.9871 26.6391 30.9155 26.5618C29.3553 26.5618 27.5214 26.5227 26.624 26.5227L27.7169 12.2058H42.189V16.809H32.2803L31.8911 22.0367C32.0474 22.0367 32.3976 22.075 32.6712 22.075C40.2005 22.4268 43.2428 26.6782 43.2428 30.8132C43.2428 36.08 39.0685 40.4096 32.7885 40.4096Z" fill="white"/>
</g>
<defs>
<clipPath id="clip0_329_242">
<rect width="52" height="52" fill="white"/>
</clipPath>
</defs>
</svg>
