<svg width="52" height="52" viewBox="0 0 52 52" fill="none" xmlns="http://www.w3.org/2000/svg">
<g clip-path="url(#clip0_329_243)">
<path fill-rule="evenodd" clip-rule="evenodd" d="M52 25.9996C52 40.3589 40.3598 52 26.0004 52C11.6404 52 0 40.3589 0 25.9996C0 11.6404 11.6404 0 26.0004 0C40.3598 0 52 11.6404 52 25.9996Z" fill="#FF82B4"/>
<path d="M14.5298 39.7473V18.0968C12.8524 19.4233 10.1994 20.7107 8.3656 21.5299L6.49435 17.3167C9.38022 16.1075 12.8524 14.2737 15.5835 12.2062H20.3813V39.7473H14.5298ZM34.5761 40.4102C27.0472 40.4102 24.3551 35.1832 24.3551 27.8887C24.3551 18.3305 28.8419 11.4652 37.6574 11.4652C39.2193 11.4652 40.6231 11.6598 41.7924 11.9334L40.9342 16.6148C40.1932 16.3021 38.7502 15.9512 37.1509 15.9512C33.2896 15.9512 30.4802 19.0333 30.091 24.5721C31.0258 23.7529 32.8205 22.7 35.7862 22.7C40.3495 22.7 44.0171 25.704 44.0171 30.8528C44.0171 36.3533 40.3495 40.4102 34.5761 40.4102ZM34.0306 27.0305C32.2749 27.0305 30.8711 27.6933 30.3239 28.5516C30.0128 29.0198 30.0128 30.1118 30.0128 30.9309C30.0128 33.5448 31.5339 36.0805 34.3416 36.0805C37.0728 36.0805 38.4766 33.8567 38.4766 31.4773C38.4766 28.9025 36.7601 27.0305 34.0306 27.0305Z" fill="black"/>
</g>
<defs>
<clipPath id="clip0_329_243">
<rect width="52" height="52" fill="white"/>
</clipPath>
</defs>
</svg>
