<svg width="52" height="52" viewBox="0 0 52 52" fill="none" xmlns="http://www.w3.org/2000/svg">
<g clip-path="url(#clip0_329_244)">
<path fill-rule="evenodd" clip-rule="evenodd" d="M52 25.9996C52 40.3598 40.3589 52.0002 25.9996 52.0002C11.6404 52.0002 0 40.3598 0 25.9996C0 11.6404 11.6404 0 25.9996 0C40.3589 0 52 11.6404 52 25.9996Z" fill="#D2D200"/>
<path d="M13.854 39.7473V18.0968C12.1765 19.4233 9.52353 20.7107 7.68973 21.5299L5.81848 17.3167C8.70435 16.1075 12.1765 14.2737 14.9076 12.2062H19.7055V39.7473H13.854ZM33.2374 39.7473H26.956C26.956 36.1196 27.9315 33.7785 30.35 29.2926L37.0597 16.8094H23.6792V12.2062H42.9504V16.6922C36.905 27.186 33.2374 35.4169 33.2374 39.7473Z" fill="black"/>
</g>
<defs>
<clipPath id="clip0_329_244">
<rect width="52" height="52" fill="white"/>
</clipPath>
</defs>
</svg>
