<svg width="52" height="52" viewBox="0 0 52 52" fill="none" xmlns="http://www.w3.org/2000/svg">
<g clip-path="url(#clip0_329_245)">
<path fill-rule="evenodd" clip-rule="evenodd" d="M52 26.0003C52 40.3597 40.3598 52 26.0004 52C11.6404 52 0 40.3597 0 26.0003C0 11.6412 11.6404 0 26.0004 0C40.3598 0 52 11.6412 52 26.0003Z" fill="#00A092"/>
<path d="M15.1721 39.7472V18.0968C13.4946 19.4232 10.8433 20.7106 9.00948 21.5298L7.1366 17.3167C10.0241 16.1074 13.4946 14.2737 16.2258 12.2062H21.0236V39.7472H15.1721ZM34.4774 40.4882C28.3522 40.4882 24.8817 36.8214 24.8817 32.6474C24.8817 28.9806 26.9484 26.6786 29.6014 25.3138C27.222 23.831 25.74 21.959 25.74 19.1114C25.74 14.5473 29.875 11.387 34.5946 11.387C39.4316 11.387 43.4493 13.7664 43.4493 18.4868C43.4493 21.0616 42.1236 23.2464 39.5488 24.8065C42.0845 26.0158 44.3076 28.356 44.3076 31.9845C44.3076 37.2115 40.1335 40.4882 34.4774 40.4882ZM34.01 27.225C32.2153 27.9269 30.4206 29.878 30.4206 32.0236C30.4206 34.2857 31.9026 36.4314 34.5555 36.4314C37.1694 36.4314 38.6124 34.5976 38.6124 32.4137C38.6124 29.917 36.3503 28.3951 34.01 27.225ZM34.6728 15.3664C32.5263 15.3664 31.1616 16.6921 31.1616 18.6041C31.1616 20.8662 33.4237 22.2708 35.1793 23.0118C36.6222 22.349 38.184 20.5543 38.184 18.8378C38.184 16.9266 36.9349 15.3664 34.6728 15.3664Z" fill="white"/>
</g>
<defs>
<clipPath id="clip0_329_245">
<rect width="52" height="52" fill="white"/>
</clipPath>
</defs>
</svg>
