<?xml version="1.0" encoding="utf-8"?>
<!-- Generator: Adobe Illustrator 21.0.2, SVG Export Plug-In . SVG Version: 6.00 Build 0)  -->
<svg version="1.2" baseProfile="tiny" id="Calque_1"
	 xmlns="http://www.w3.org/2000/svg" xmlns:xlink="http://www.w3.org/1999/xlink" x="0px" y="0px" viewBox="0 0 120 77"
	 overflow="scroll" xml:space="preserve">
<rect fill-rule="evenodd" fill="#FF5A00" width="120" height="77"/>
<g>
	<path d="M28.1161995,59.2118988V26.6587009c-2.5219994,1.9940987-6.5107002,3.9296989-9.2670994,5.1615982l-2.8153992-6.3348999
		c4.3402996-1.8183994,9.5604992-4.5751991,13.6664982-7.6835995h7.2144012v41.410099H28.1161995z"/>
	<path d="M57.7402,60.3261986c-12.4935989,0-14.9570007-12.3173981-14.9570007-21.8779984
		c0-9.5610008,2.6982002-21.8784008,15.1914024-21.8784008c12.4942017,0,14.9570007,12.3174,14.9570007,21.8784008
		C72.9316025,48.0088005,70.2333984,60.3261986,57.7402,60.3261986z M57.857399,23.5498009
		c-5.9828987,0-6.158699,10.6753006-6.158699,14.8983994c0,4.1641006,0.293499,14.9570999,6.158699,14.9570999
		c5.8652992,0,6.0996017-10.8516006,6.0996017-14.9570999C63.9570007,34.107399,63.7812996,23.5498009,57.857399,23.5498009z"/>
	<path d="M86.1962967,60.2089996c-4.8095932,0-8.5048981-1.0556984-11.6718979-2.9911995l3.342804-6.4522018
		c2.2880936,1.5840034,4.6347961,2.6397018,7.8602982,2.6397018C88.9531021,53.4053001,93,51.4696999,93,46.6016006
		c0-2.9921989-1.9941025-7.097702-9.6191025-7.214901c-2.3456955,0-5.1026001-0.0586014-6.4511948-0.0586014l1.6415939-21.5262985
		h21.760704v6.9209003H85.4336014l-0.5858994,7.8598003c0.2342987,0,0.7616959,0.0586014,1.1727982,0.0586014
		c11.3202972,0.5277977,15.8955002,6.9213982,15.8955002,13.1391983
		C101.9160004,53.6982002,95.6406021,60.2089996,86.1962967,60.2089996z"/>
</g>
<g>
</g>
</svg>
