<svg xmlns="http://www.w3.org/2000/svg" height="1000" width="1718" viewBox="0 0 1804 1050"><path fill="#006cb8" d="M0 0h1718v1000H0z"/><g fill="#fff"><path d="M320.802 824V324.503c-21.6 17.1-85.499 50.399-108.899 62.1l-33.3 17.1-43.2-97.199 38.7-18c73.799-34.2 142.199-77.4 170.999-99.899h110.7V824h-135zM652.901 824v-83.699c16.2-73.8 89.1-138.6 173.699-212.398 42.299-36.9 88.199-81 88.199-142.199 0-54.9-36-99-105.298-99-55.8 0-94.5 40.5-109.8 57.6l-66.6-88.199c61.2-53.1 117.899-78.3 203.398-78.3 111.599 0 216.898 63 216.898 192.599 0 108.899-69.299 158.398-145.799 227.698-32.399 29.7-96.298 82.8-104.399 119.699h261.898V824H652.901zM1328.798 836.6c-67.5 0-125.1-18-174.6-45.899l46.8-98.999c30.601 20.699 66.6 40.499 120.6 40.499 49.5 0 111.6-27.899 111.6-102.599 0-45.9-30.601-108.899-147.6-109.799l-98.999-.9 25.199-330.298h333.898v105.299h-228.599l-9 121.5 18 .9c173.698 9 243.898 105.299 243.898 200.698.001 121.499-96.299 219.598-241.197 219.598z"/></g></svg>