<svg xmlns="http://www.w3.org/2000/svg" height="1000" width="1718" viewBox="0 0 1804 1050"><path fill="#bb4b9c" d="M0 0h1718v1000H0z"/><g fill="#fff"><path d="M320.802 824V324.503c-21.6 17.1-85.499 50.399-108.899 62.1l-33.3 17.1-43.2-97.199 38.7-18c73.799-34.2 142.199-77.4 170.999-99.899h110.7V824h-135zM818.5 836.6c-81.899 0-131.399-18.899-182.699-47.699l48.6-98.1c27 20.7 71.1 41.399 125.1 41.399 73.798 0 119.699-39.6 119.699-93.599 0-72.9-55.8-96.3-120.599-96.3h-65.699V437.002h66.6c62.099 0 100.798-30.6 100.798-79.199 0-40.5-30.6-75.6-97.199-75.6-58.5 0-97.199 27.9-117.899 45.9l-44.1-93.6c54.899-36 116.1-56.7 190.799-56.7 129.598 0 203.398 75.6 203.398 160.199 0 65.699-35.1 116.099-102.6 141.299v1.8c70.2 13.5 123.3 65.699 123.3 154.799-.001 111.601-99.9 200.7-247.499 200.7zM1360.297 838.4c-141.299 0-221.398-84.6-221.398-180.899 0-84.599 47.7-134.099 108.899-165.599-54.899-34.2-89.1-72.899-89.1-138.599 0-105.299 95.399-178.199 204.299-178.199 111.6 0 204.299 54.899 204.299 163.799 0 59.399-30.6 105.299-89.999 141.299 58.499 27.899 109.799 78.3 109.799 161.999 0 120.6-96.299 196.199-226.799 196.199zm-10.8-302.398c-41.399 16.199-82.799 57.6-82.799 107.1 0 52.199 34.199 101.699 95.399 101.699 60.299 0 93.599-42.3 93.599-92.699 0-57.6-52.199-89.1-106.199-116.1zm15.3-269.098c-49.499 0-80.999 30.6-80.999 74.7 0 52.199 52.199 80.099 92.699 97.199 33.3-15.3 69.3-52.2 69.3-91.799 0-44.101-28.8-80.1-81-80.1z"/></g></svg>