<svg xmlns="http://www.w3.org/2000/svg" height="1000" width="1718" viewBox="0 0 1804 1050"><path fill="#006cb8" d="M0 0h1718v1000H0z"/><g fill="#fff"><path d="M320.802 824V324.503c-21.6 17.1-85.499 50.399-108.899 62.1l-33.3 17.1-43.2-97.199 38.7-18c73.799-34.2 142.199-77.4 170.999-99.899h110.7V824h-135zM1025.498 691.701V824H903.099V691.701H616.902V573.802l246.597-385.197h161.999v404.097h78.3v99h-78.3zM903.099 300.204h-1.8c-2.7 10.8-20.7 49.5-45.899 89.099L725.8 592.701h177.298V300.204zM1322.498 836.6c-81.899 0-131.399-18.899-182.699-47.699l48.6-98.1c27 20.7 71.1 41.399 125.1 41.399 73.799 0 119.699-39.6 119.699-93.599 0-72.9-55.8-96.3-120.6-96.3h-65.699V437.002h66.6c62.1 0 100.799-30.6 100.799-79.199 0-40.5-30.6-75.6-97.199-75.6-58.5 0-97.199 27.9-117.899 45.9l-44.1-93.6c54.899-36 116.1-56.7 190.799-56.7 129.599 0 203.398 75.6 203.398 160.199 0 65.699-35.1 116.099-102.6 141.299v1.8c70.2 13.5 123.3 65.699 123.3 154.799-.001 111.601-99.9 200.7-247.499 200.7z"/></g></svg>