<svg xmlns="http://www.w3.org/2000/svg" height="1000" width="1718" viewBox="0 0 1804 1050"><path fill="#bb4b9c" d="M0 0h1718v1000H0z"/><g fill="#fff"><path d="M320.802 824V324.503c-21.6 17.1-85.499 50.399-108.899 62.1l-33.3 17.1-43.2-97.199 38.7-18c73.799-34.2 142.199-77.4 170.999-99.899h110.7V824h-135zM824.8 836.6c-67.5 0-125.1-18-174.6-45.899l46.8-98.999C727.601 712.4 763.6 732.2 817.6 732.2c49.5 0 111.599-27.899 111.599-102.599 0-45.9-30.601-108.899-147.599-109.799l-98.999-.9L707.8 188.604h333.898v105.299H813.1l-9 121.5 18 .9c173.698 9 243.898 105.299 243.898 200.698 0 121.5-96.3 219.599-241.198 219.599zM1328.798 824V324.503c-21.601 17.1-85.5 50.399-108.899 62.1l-33.3 17.1-43.2-97.199 38.7-18c73.8-34.2 142.199-77.4 170.999-99.899h110.699V824h-134.999z"/></g></svg>