<svg xmlns="http://www.w3.org/2000/svg" width="120" height="77" viewBox="0 0 126 81"><path fill-rule="evenodd" clip-rule="evenodd" fill="#ff82b4" d="M0 0h120v77H0z"/><path d="M27.624 59.212V26.659c-2.522 1.994-6.511 3.93-9.267 5.162l-2.815-6.335c4.34-1.818 9.561-4.575 13.667-7.684h7.214v41.41h-8.799zM52.198 60.209c-4.81 0-8.505-1.056-11.672-2.991l3.343-6.452c2.288 1.584 4.634 2.64 7.859 2.64 3.226 0 7.273-1.936 7.273-6.804 0-2.992-1.994-7.098-9.619-7.215-2.347 0-5.103-.059-6.452-.059l1.642-21.526h21.761v6.921H51.436l-.586 7.86c.234 0 .762.059 1.173.059 11.32.528 15.896 6.921 15.896 13.139-.001 7.917-6.277 14.428-15.721 14.428zM98.127 50.59v8.622h-8.211V50.59H71.264v-7.684l16.071-25.104h10.792v26.336h4.869v6.452h-4.869zm-8.211-25.515h-.117c-.176.704-1.35 3.226-2.992 5.807l-8.445 13.256h11.555V25.075z"/></svg>