<svg xmlns="http://www.w3.org/2000/svg" width="120" height="77" viewBox="0 0 126 81"><path fill-rule="evenodd" clip-rule="evenodd" fill="#82c8e6" d="M0 0h120v77H0z"/><path d="M31.172 59.212V26.659c-2.522 1.994-6.511 3.93-9.267 5.162l-2.815-6.335c4.34-1.818 9.561-4.575 13.667-7.684h7.214v41.41h-8.799zM61.002 60.209c-11.321 0-15.368-7.859-15.368-18.828 0-14.371 6.745-24.694 20.001-24.694 2.347 0 4.458.293 6.218.704l-1.29 7.039c-1.115-.469-3.285-.997-5.689-.997-5.807 0-10.03 4.634-10.617 12.962 1.408-1.231 4.106-2.815 8.564-2.815 6.861 0 12.375 4.517 12.375 12.259-.001 8.27-5.514 14.37-14.194 14.37zm-.822-20.118c-2.64 0-4.751.997-5.572 2.287-.469.704-.469 2.347-.469 3.578 0 3.93 2.288 7.742 6.511 7.742 4.106 0 6.218-3.343 6.218-6.921-.001-3.871-2.582-6.686-6.688-6.686zM87.363 59.212V26.659c-2.521 1.994-6.51 3.93-9.267 5.162l-2.815-6.335c4.34-1.818 9.561-4.575 13.666-7.684h7.215v41.41h-8.799z"/></svg>