<svg xmlns="http://www.w3.org/2000/svg" height="1000" width="1718" viewBox="0 0 1804 1050"><path fill="#ed1b2a" d="M0 0h1718v1000H0z"/><g fill="#fff"><path d="M320.802 824V324.503c-21.6 17.1-85.499 50.399-108.899 62.1l-33.3 17.1-43.2-97.199 38.7-18c73.799-34.2 142.199-77.4 170.999-99.899h110.7V824h-135zM858.1 824H713.201c0-83.699 22.5-137.699 78.3-241.198l154.798-287.998H637.601v-106.2h444.597v103.499C942.698 534.202 858.1 724.101 858.1 824zM1328.798 824V324.503c-21.601 17.1-85.5 50.399-108.899 62.1l-33.3 17.1-43.2-97.199 38.7-18c73.8-34.2 142.199-77.4 170.999-99.899h110.699V824h-134.999z"/></g></svg>