<svg xmlns="http://www.w3.org/2000/svg" height="1000" width="1718" viewBox="0 0 1804 1050"><path fill="#008b5a" d="M0 0h1718v1000H0z"/><g fill="#fff"><path d="M320.802 824V324.503c-21.6 17.1-85.499 50.399-108.899 62.1l-33.3 17.1-43.2-97.199 38.7-18c73.799-34.2 142.199-77.4 170.999-99.899h110.7V824h-135zM858.1 824H713.201c0-83.699 22.5-137.699 78.3-241.198l154.798-287.998H637.601v-106.2h444.597v103.499C942.698 534.202 858.1 724.101 858.1 824zM1285.598 834.8c-36 0-68.399-4.5-94.499-10.8l19.8-107.999c17.1 7.2 49.5 15.3 85.499 15.3 87.3 0 152.999-63.899 161.1-191.699-21.601 18.9-62.1 43.2-129.6 43.2-103.499 0-188.099-69.3-188.099-188.099 0-126.899 84.6-219.599 215.099-219.599 170.999 0 232.198 119.699 232.198 287.998 0 220.499-101.7 371.698-301.498 371.698zm73.799-559.796c-61.199 0-92.699 51.299-92.699 106.199 0 59.399 38.699 101.699 99.899 101.699 38.699 0 70.199-15.3 82.799-35.1 7.2-10.8 7.2-35.1 7.2-54 .001-60.299-34.2-118.798-97.199-118.798z"/></g></svg>