<?xml version="1.0" encoding="utf-8"?>
<!-- Generator: Adobe Illustrator 21.0.2, SVG Export Plug-In . SVG Version: 6.00 Build 0)  -->
<svg version="1.2" baseProfile="tiny" id="Calque_1"
	 xmlns="http://www.w3.org/2000/svg" xmlns:xlink="http://www.w3.org/1999/xlink" x="0px" y="0px" viewBox="0 0 120 77"
	 xml:space="preserve">
<rect fill-rule="evenodd" fill="#6E491E" width="120" height="77"/>
<g>
	<path fill="#FFFFFF" d="M27.28,59.44V26.69c-2.54,2.01-6.55,3.95-9.32,5.19l-2.83-6.37c4.37-1.83,9.62-4.6,13.75-7.73h7.26v41.66
		H27.28z"/>
	<path fill="#FFFFFF" d="M52.23,60.56c-2.36,0-4.48-0.29-6.25-0.71l1.3-7.08c1.12,0.47,3.3,1,5.72,1c5.84,0,10.09-4.66,10.68-13.04
		c-1.42,1.24-4.13,2.83-8.62,2.83c-6.9,0-12.45-4.54-12.45-12.33c0-8.32,5.55-14.46,14.28-14.46c11.39,0,15.46,7.91,15.46,18.94
		C72.36,50.17,65.57,60.56,52.23,60.56z M57.25,23.33c-4.13,0-6.25,3.36-6.25,6.96c0,3.89,2.6,6.73,6.73,6.73
		c2.66,0,4.78-1,5.61-2.3c0.47-0.71,0.47-2.36,0.47-3.6C63.8,27.16,61.5,23.33,57.25,23.33z"/>
	<path fill="#FFFFFF" d="M85.25,60.44c-5.96,0-9.26-1.47-12.04-3.13l3.25-6.43c1.77,1.24,4.66,2.71,8.2,2.71
		c4.84,0,7.85-2.83,7.85-6.37c0-4.78-3.66-6.43-7.91-6.43h-4.31v-6.9h4.37c4.07,0,6.61-2.12,6.61-5.31c0-2.66-2.01-5.07-6.37-5.07
		c-3.84,0-6.37,1.83-7.73,3.01l-3.01-6.14c3.54-2.36,7.38-3.72,12.63-3.72c8.5,0,13.33,5.07,13.33,10.62c0,4.31-2.3,7.73-6.73,9.38
		v0.12c4.6,0.88,8.08,4.43,8.08,10.27C101.48,54.36,94.93,60.44,85.25,60.44z"/>
</g>
<g>
</g>
</svg>
