<?xml version="1.0" encoding="UTF-8"?>
<svg id="Calque_1" data-name="Calque 1" xmlns="http://www.w3.org/2000/svg" baseProfile="tiny" version="1.2" viewBox="0 0 120 77">
  <rect width="120" height="77" fill="#640082" stroke-width="0"/>
  <g>
    <path d="M15.3564085,59.2019855v-5.4552142c1.0560348-4.8096757,5.8073638-9.209269,11.3209248-14.0189447,2.7567805-2.4050448,5.7486032-5.3964537,5.7486032-9.3851368,0-3.5781869-2.3462842-6.5695958-6.8629848-6.5695958-3.6369474,0-6.1590995,2.6396732-7.1563737,3.7540547l-4.3404189-5.7486032c3.9886832-3.4606658,7.6839773-5.1030647,13.2562989-5.1030647,7.2734811,0,14.1364658,4.2233116,14.1364658,12.6699347,0,7.0976132-4.5167006,10.4411716-9.5022442,14.9574584-2.1116558,1.9357879-6.2766206,5.5727354-6.8042242,7.9773663h17.0691142v6.9217453H15.3564085Z" fill="#fff" stroke-width="0"/>
    <path d="M60.3040965,60.3163671c-12.4940669,0-14.9574584-12.3177852-14.9574584-21.8792037,0-9.5610047,2.6980199-21.8787899,15.1920868-21.8787899s14.9574584,12.3177852,14.9574584,21.8787899c0,9.5614185-2.6980199,21.8792037-15.1920868,21.8792037ZM60.4212038,23.5384655c-5.9828178,0-6.1586857,10.6753863-6.1586857,14.8986978,0,4.1649648.293389,14.9578722,6.1586857,14.9578722,5.8661243,0,6.100339-10.8516679,6.100339-14.9578722,0-4.3404189-.1758679-14.8986978-6.100339-14.8986978Z" fill="#fff" stroke-width="0"/>
    <path d="M77.9525401,59.2019855v-5.4552142c1.0560348-4.8096757,5.8073638-9.209269,11.3209248-14.0189447,2.7567805-2.4050448,5.7486032-5.3964537,5.7486032-9.3851368,0-3.5781869-2.3462842-6.5695958-6.8629848-6.5695958-3.6369474,0-6.1590995,2.6396732-7.1563737,3.7540547l-4.3404189-5.7486032c3.9886832-3.4606658,7.6839773-5.1030647,13.2562989-5.1030647,7.2734811,0,14.1364658,4.2233116,14.1364658,12.6699347,0,7.0976132-4.5167006,10.4411716-9.5022442,14.9574584-2.1120696,1.9357879-6.2766206,5.5727354-6.804638,7.9773663h17.069528v6.9217453h-26.8651611Z" fill="#fff" stroke-width="0"/>
  </g>
</svg>