<?xml version="1.0" encoding="utf-8"?>
<!-- Generator: Adobe Illustrator 24.1.2, SVG Export Plug-In . SVG Version: 6.00 Build 0)  -->
<svg version="1.2" baseProfile="tiny" id="Calque_1"
	 xmlns="http://www.w3.org/2000/svg" xmlns:xlink="http://www.w3.org/1999/xlink" x="0px" y="0px" viewBox="0 0 120 77"
	 overflow="visible" xml:space="preserve">
<rect x="0.0001905" y="-0.1424206" fill-rule="evenodd" fill="#8D5E2A" width="119.9998093" height="77.1422348"/>
<g>
	<rect x="10.7410545" y="0.280913" fill-rule="evenodd" fill="none" width="98.6966858" height="61.5892487"/>
	<path fill="#FFFFFF" d="M13.7333984,60.5371094v-5.4550781c1.0556641-4.8095703,5.8066406-9.2089844,11.3203125-14.0185547
		c2.7568359-2.4042969,5.7480469-5.3964844,5.7480469-9.3847656c0-3.578125-2.3457031-6.5693359-6.8623047-6.5693359
		c-3.6367188,0-6.1591797,2.6396484-7.15625,3.7539063l-4.3398438-5.7480469
		c3.9882813-3.4609375,7.6835938-5.1025391,13.2558594-5.1025391c7.2734375,0,14.1357422,4.2226563,14.1357422,12.6689453
		c0,7.0976563-4.5166016,10.4404297-9.5019531,14.9570313c-2.1113281,1.9355469-6.2763672,5.5722656-6.8037109,7.9775391h17.0683594
		v6.9208984H13.7333984z"/>
	<path fill="#FFFFFF" d="M59.8955078,61.6513672c-12.4931641,0-14.9570313-12.3173828-14.9570313-21.8779297
		s2.6982422-21.8779297,15.1923828-21.8779297c12.4931641,0,14.9570313,12.3173828,14.9570313,21.8779297
		S72.3896484,61.6513672,59.8955078,61.6513672z M60.0126953,24.875c-5.9824219,0-6.1582031,10.6748047-6.1582031,14.8984375
		c0,4.1640625,0.2929688,14.9570313,6.1582031,14.9570313c5.8662109,0,6.1005859-10.8515625,6.1005859-14.9570313
		C66.1132813,35.4326172,65.9375,24.875,60.0126953,24.875z"/>
	<path fill="#FFFFFF" d="M93.7998047,61.5341797c-11.3212891,0-15.3681641-7.859375-15.3681641-18.828125
		c0-14.3701172,6.7451172-24.6933594,20.0009766-24.6933594c2.3466797,0,4.4580078,0.2929688,6.2177734,0.703125
		l-1.2900391,7.0390625c-1.1152344-0.4697266-3.2851563-0.9970703-5.6894531-0.9970703
		c-5.8076172,0-10.0302734,4.6337891-10.6171875,12.9628906c1.4082031-1.2324219,4.1064453-2.8154297,8.5634766-2.8154297
		c6.8632813,0,12.3769531,4.515625,12.3769531,12.2587891C107.9941406,55.4345703,102.4804688,61.5341797,93.7998047,61.5341797z
		 M92.9785156,41.4160156c-2.6396484,0-4.7509766,0.9970703-5.5722656,2.2871094
		c-0.4697266,0.7041016-0.4697266,2.3466797-0.4697266,3.578125c0,3.9296875,2.2880859,7.7421875,6.5107422,7.7421875
		c4.1064453,0,6.2177734-3.3427734,6.2177734-6.9208984C99.6650391,44.2314453,97.0839844,41.4160156,92.9785156,41.4160156z"/>
</g>
<rect fill-rule="evenodd" fill="#00A092" width="120" height="77"/>
<g>
	<path fill="#FFFFFF" d="M13.8085938,59.5371094v-5.4550781c1.0556641-4.8095703,5.8066406-9.2089844,11.3203125-14.0185547
		c2.7568359-2.4047852,5.7480469-5.3969727,5.7480469-9.3852539c0-3.578125-2.3457031-6.5693359-6.8623047-6.5693359
		c-3.6367188,0-6.1582031,2.6396484-7.15625,3.7539063l-4.3398438-5.7480469
		c3.9882813-3.4609375,7.6835938-5.1025391,13.2558594-5.1025391c7.2734375,0,14.1357422,4.2226563,14.1357422,12.6689453
		c0,7.0976563-4.5166016,10.440918-9.5019531,14.9575195c-2.1113281,1.9355469-6.2763672,5.5722656-6.8037109,7.9775391h17.0683594
		v6.9208984H13.8085938z"/>
	<path fill="#FFFFFF" d="M59.9707031,60.6513672c-12.4931641,0-14.9570313-12.3173828-14.9570313-21.878418
		c0-9.5605469,2.6982422-21.8779297,15.1923828-21.8779297c12.4931641,0,14.9570313,12.3173828,14.9570313,21.8779297
		C75.1630859,48.3339844,72.4648438,60.6513672,59.9707031,60.6513672z M60.0888672,23.8745117
		c-5.9833984,0-6.1591797,10.6748047-6.1591797,14.8984375c0,4.1645508,0.2929688,14.9575195,6.1591797,14.9575195
		c5.8652344,0,6.0996094-10.8515625,6.0996094-14.9575195C66.1884766,34.4321289,66.0126953,23.8745117,60.0888672,23.8745117z"/>
	<path fill="#FFFFFF" d="M87.3642578,60.6513672c-2.3466797,0-4.4580078-0.2929688-6.2177734-0.7041016l1.2900391-7.0380859
		c1.1152344,0.46875,3.2851563,0.9970703,5.6894531,0.9970703c5.8076172,0,10.0302734-4.6337891,10.6171875-12.9628906
		c-1.4082031,1.2314453-4.1064453,2.8154297-8.5634766,2.8154297c-6.8632813,0-12.3769531-4.5166016-12.3769531-12.2592773
		c0-8.2705078,5.5136719-14.3701172,14.1943359-14.3701172c11.3212891,0,15.3681641,7.859375,15.3681641,18.828125
		C107.3652344,50.328125,100.6201172,60.6513672,87.3642578,60.6513672z M92.3496094,23.6401367
		c-4.1064453,0-6.2177734,3.3427734-6.2177734,6.9208984c0,3.8710938,2.5810547,6.6865234,6.6865234,6.6865234
		c2.6396484,0,4.7509766-0.9970703,5.5722656-2.2871094c0.4697266-0.7041016,0.4697266-2.3466797,0.4697266-3.578125
		C98.8603516,27.4526367,96.5722656,23.6401367,92.3496094,23.6401367z"/>
</g>
<g>
</g>
</svg>
