<svg xmlns="http://www.w3.org/2000/svg" width="120" height="77" viewBox="0 0 126 81"><path fill-rule="evenodd" clip-rule="evenodd" fill="#5a230a" d="M0 0h120v77H0z"/><g fill="#fff"><path d="M12.624 59.212v-5.455c1.056-4.81 5.807-9.209 11.32-14.019 2.757-2.404 5.748-5.396 5.748-9.385 0-3.578-2.346-6.569-6.863-6.569-3.636 0-6.159 2.64-7.156 3.754l-4.34-5.748c3.988-3.46 7.684-5.103 13.256-5.103 7.273 0 14.136 4.223 14.136 12.669 0 7.098-4.516 10.44-9.502 14.957-2.111 1.936-6.276 5.572-6.804 7.978h17.068v6.921H12.624zM68.754 50.59v8.622h-8.212V50.59H41.89v-7.684l16.071-25.104h10.793v26.336h4.867v6.452h-4.867zm-8.212-25.515h-.118c-.176.704-1.349 3.226-2.991 5.807l-8.446 13.256h11.555V25.075zM92.013 60.326c-12.493 0-14.957-12.317-14.957-21.878S79.754 16.57 92.247 16.57s14.957 12.317 14.957 21.878-2.698 21.878-15.191 21.878zm.117-36.776c-5.983 0-6.159 10.675-6.159 14.898 0 4.164.294 14.957 6.159 14.957 5.866 0 6.101-10.852 6.101-14.957-.001-4.341-.176-14.898-6.101-14.898z"/></g></svg>