<?xml version="1.0" encoding="utf-8"?>
<!-- Generator: Adobe Illustrator 23.0.3, SVG Export Plug-In . SVG Version: 6.00 Build 0)  -->
<svg version="1.2" baseProfile="tiny" id="Calque_1"
	 xmlns="http://www.w3.org/2000/svg" xmlns:xlink="http://www.w3.org/1999/xlink" x="0px" y="0px" viewBox="0 0 120 77"
	 xml:space="preserve">
<rect fill-rule="evenodd" fill="#82DC73" width="120" height="77"/>
<g>
	<path d="M14.29,59.21v-5.46c1.06-4.81,5.81-9.21,11.32-14.02c2.76-2.4,5.75-5.4,5.75-9.38c0-3.58-2.35-6.57-6.86-6.57
		c-3.64,0-6.16,2.64-7.16,3.75L13,21.79c3.99-3.46,7.68-5.1,13.26-5.1c7.27,0,14.14,4.22,14.14,12.67c0,7.1-4.52,10.44-9.5,14.96
		c-2.11,1.94-6.28,5.57-6.8,7.98h17.07v6.92H14.29z"/>
	<path d="M55.33,60.21c-4.81,0-8.51-1.06-11.67-2.99L47,50.77c2.29,1.58,4.63,2.64,7.86,2.64c3.23,0,7.27-1.94,7.27-6.8
		c0-2.99-1.99-7.1-9.62-7.21c-2.35,0-5.1-0.06-6.45-0.06L47.7,17.8h21.76v6.92h-14.9l-0.59,7.86c0.23,0,0.76,0.06,1.17,0.06
		c11.32,0.53,15.89,6.92,15.89,13.14C71.05,53.7,64.77,60.21,55.33,60.21z"/>
	<path d="M101.26,50.59v8.62h-8.21v-8.62H74.4v-7.68l16.07-25.1h10.79v26.34h4.87v6.45H101.26z M93.05,25.07h-0.12
		c-0.18,0.7-1.35,3.23-2.99,5.81l-8.45,13.26h11.55V25.07z"/>
</g>
</svg>
