<?xml version="1.0" encoding="utf-8"?>
<!-- Generator: Adobe Illustrator 23.0.3, SVG Export Plug-In . SVG Version: 6.00 Build 0)  -->
<svg version="1.2" baseProfile="tiny" id="Calque_1"
	 xmlns="http://www.w3.org/2000/svg" xmlns:xlink="http://www.w3.org/1999/xlink" x="0px" y="0px" viewBox="0 0 120 77"
	 xml:space="preserve">
<rect fill-rule="evenodd" fill="#FF82B4" width="120" height="77"/>
<g>
	<path d="M14.12,59.03v-5.39c1.04-4.76,5.74-9.11,11.19-13.86C28.04,37.4,31,34.44,31,30.5c0-3.54-2.32-6.5-6.79-6.5
		c-3.6,0-6.09,2.61-7.08,3.71l-4.29-5.68c3.94-3.42,7.6-5.05,13.11-5.05c7.19,0,13.98,4.18,13.98,12.53c0,7.02-4.47,10.32-9.4,14.79
		c-2.09,1.91-6.21,5.51-6.73,7.89h16.88v6.84H14.12z"/>
	<path d="M60.81,60.02c-11.19,0-15.2-7.77-15.2-18.62c0-14.21,6.67-24.42,19.78-24.42c2.32,0,4.41,0.29,6.15,0.7l-1.28,6.96
		c-1.1-0.46-3.25-0.99-5.63-0.99c-5.74,0-9.92,4.58-10.5,12.82c1.39-1.22,4.06-2.78,8.47-2.78c6.79,0,12.24,4.47,12.24,12.12
		C74.85,53.99,69.4,60.02,60.81,60.02z M60,40.13c-2.61,0-4.7,0.99-5.51,2.26c-0.46,0.7-0.46,2.32-0.46,3.54
		c0,3.89,2.26,7.66,6.44,7.66c4.06,0,6.15-3.31,6.15-6.84C66.61,42.91,64.06,40.13,60,40.13z"/>
	<path d="M89.75,60.02c-5.86,0-9.11-1.45-11.83-3.07l3.19-6.32c1.74,1.22,4.58,2.67,8.06,2.67c4.76,0,7.71-2.78,7.71-6.26
		c0-4.7-3.6-6.32-7.77-6.32h-4.23v-6.79h4.29c4,0,6.5-2.09,6.5-5.22c0-2.61-1.97-4.99-6.26-4.99c-3.77,0-6.26,1.8-7.6,2.96
		l-2.96-6.03c3.48-2.32,7.25-3.65,12.41-3.65c8.35,0,13.11,4.99,13.11,10.44c0,4.23-2.26,7.6-6.61,9.22v0.12
		c4.52,0.87,7.95,4.35,7.95,10.09C105.7,54.04,99.27,60.02,89.75,60.02z"/>
</g>
</svg>
