<svg xmlns="http://www.w3.org/2000/svg" width="120" height="77" viewBox="0 0 126 81"><path fill-rule="evenodd" clip-rule="evenodd" fill="#ffbe00" d="M0 0h120v77H0z"/><path d="M16.386 59.212v-5.455c1.056-4.81 5.807-9.209 11.32-14.019 2.757-2.404 5.748-5.396 5.748-9.385 0-3.578-2.346-6.569-6.863-6.569-3.636 0-6.159 2.64-7.156 3.754l-4.34-5.748c3.988-3.46 7.684-5.103 13.256-5.103 7.273 0 14.136 4.223 14.136 12.669 0 7.098-4.516 10.44-9.502 14.957-2.112 1.936-6.276 5.572-6.804 7.978H43.25v6.921H16.386zM61.189 60.209c-11.32 0-15.368-7.859-15.368-18.828 0-14.371 6.745-24.694 20.001-24.694 2.347 0 4.458.293 6.218.704l-1.29 7.039c-1.114-.469-3.285-.997-5.689-.997-5.807 0-10.03 4.634-10.617 12.962 1.408-1.231 4.106-2.815 8.564-2.815 6.862 0 12.376 4.517 12.376 12.259 0 8.27-5.514 14.37-14.195 14.37zm-.821-20.118c-2.64 0-4.751.997-5.572 2.287-.469.704-.469 2.347-.469 3.578 0 3.93 2.288 7.742 6.511 7.742 4.106 0 6.217-3.343 6.217-6.921 0-3.871-2.58-6.686-6.687-6.686zM90.596 59.212h-9.443c0-5.455 1.467-8.975 5.104-15.72l10.089-18.77H76.227v-6.921h28.975v6.745c-9.093 15.779-14.606 28.155-14.606 34.666z"/></svg>