<?xml version="1.0" encoding="UTF-8"?>
<svg id="Calque_1" xmlns="http://www.w3.org/2000/svg" baseProfile="tiny" version="1.2" viewBox="0 0 120 77">
  <!-- Generator: Adobe Illustrator 29.0.1, SVG Export Plug-In . SVG Version: 2.1.0 Build 192)  -->
  <rect y="-.1435747" width="120" height="77.1435747" fill="#640082"/>
  <g>
    <path d="M14.5932617,58.7216797v-5.5117188c1.0668945-4.859375,5.8671875-9.3046875,11.4379883-14.1640625,2.7856445-2.4301758,5.8081055-5.4526367,5.8081055-9.4824219,0-3.6152344-2.3706055-6.6376953-6.934082-6.6376953-3.6743164,0-6.2226562,2.6665039-7.2304688,3.7929688l-4.3852539-5.8081055c4.0297852-3.496582,7.7636719-5.15625,13.3935547-5.15625,7.3491211,0,14.2832031,4.2670898,14.2832031,12.8012695,0,7.1708984-4.5634766,10.5488281-9.6010742,15.1123047-2.1333008,1.9560547-6.3413086,5.6308594-6.8745117,8.0605469h17.2460938v6.9931641H14.5932617Z" fill="#fff"/>
    <path d="M58.046875,58.7216797h-9.5419922c0-5.5117188,1.4819336-9.0673828,5.15625-15.8828125l10.1933594-18.9648438h-20.3276367v-6.9936523h29.2768555v6.8154297c-9.1865234,15.9418945-14.7568359,28.4477539-14.7568359,35.0258789Z" fill="#fff"/>
    <path d="M89.4150391,58.7216797h-9.5419922c0-5.5117188,1.4814453-9.0673828,5.15625-15.8828125l10.1933594-18.9648438h-20.3271484v-6.9936523h29.2763672v6.8154297c-9.1865234,15.9418945-14.7568359,28.4477539-14.7568359,35.0258789Z" fill="#fff"/>
  </g>
</svg>