<svg xmlns="http://www.w3.org/2000/svg" width="120" height="77" viewBox="0 0 126 81"><path fill-rule="evenodd" clip-rule="evenodd" fill="#ff5a00" d="M0 0h120v77H0z"/><path d="M15.184 59.212v-5.455c1.056-4.81 5.807-9.209 11.32-14.019 2.757-2.404 5.748-5.396 5.748-9.385 0-3.578-2.346-6.569-6.863-6.569-3.636 0-6.159 2.64-7.156 3.754l-4.34-5.748c3.988-3.46 7.684-5.103 13.256-5.103 7.273 0 14.136 4.223 14.136 12.669 0 7.098-4.516 10.44-9.502 14.957-2.112 1.936-6.276 5.572-6.804 7.978h17.069v6.921H15.184zM58.198 59.212h-9.443c0-5.455 1.466-8.975 5.103-15.72l10.088-18.77H43.828v-6.921h28.975v6.745c-9.091 15.779-14.605 28.155-14.605 34.666zM84.643 60.326c-2.346 0-4.457-.293-6.217-.704l1.29-7.038c1.114.469 3.284.997 5.689.997 5.807 0 10.03-4.634 10.616-12.963-1.407 1.232-4.105 2.815-8.563 2.815-6.862 0-12.376-4.517-12.376-12.259 0-8.27 5.514-14.37 14.194-14.37 11.32 0 15.368 7.859 15.368 18.828.001 14.371-6.746 24.694-20.001 24.694zm4.986-37.011c-4.106 0-6.218 3.343-6.218 6.921 0 3.871 2.581 6.687 6.687 6.687 2.64 0 4.751-.997 5.572-2.287.469-.704.469-2.346.469-3.578 0-3.93-2.287-7.743-6.51-7.743z"/></svg>