<svg xmlns="http://www.w3.org/2000/svg" width="120" height="77" viewBox="0 0 126 81"><path fill-rule="evenodd" clip-rule="evenodd" fill="#ff1400" d="M0 0h120v77H0z"/><g fill="#fff"><path d="M15.823 59.212v-5.455c1.056-4.81 5.807-9.209 11.32-14.019 2.757-2.404 5.748-5.396 5.748-9.385 0-3.578-2.346-6.569-6.863-6.569-3.636 0-6.159 2.64-7.156 3.754l-4.34-5.748c3.988-3.46 7.684-5.103 13.256-5.103 7.273 0 14.136 4.223 14.136 12.669 0 7.098-4.516 10.44-9.502 14.957-2.111 1.936-6.276 5.572-6.804 7.978h17.068v6.921H15.823zM55.048 60.326a27.48 27.48 0 0 1-6.217-.704l1.291-7.038c1.114.469 3.285.997 5.689.997 5.806 0 10.03-4.634 10.617-12.963-1.408 1.232-4.105 2.815-8.564 2.815-6.862 0-12.376-4.517-12.376-12.259 0-8.27 5.514-14.37 14.194-14.37 11.32 0 15.368 7.859 15.368 18.828 0 14.371-6.745 24.694-20.002 24.694zm4.986-37.011c-4.106 0-6.217 3.343-6.217 6.921 0 3.871 2.581 6.687 6.687 6.687 2.639 0 4.75-.997 5.573-2.287.469-.704.469-2.346.469-3.578-.001-3.93-2.288-7.743-6.512-7.743zM88.285 60.209c-4.81 0-8.505-1.056-11.672-2.991l3.344-6.452c2.287 1.584 4.633 2.64 7.859 2.64s7.273-1.936 7.273-6.804c0-2.992-1.994-7.098-9.62-7.215-2.346 0-5.103-.059-6.452-.059l1.643-21.526h21.762v6.921H87.523l-.587 7.86c.234 0 .763.059 1.173.059 11.32.528 15.896 6.921 15.896 13.139 0 7.917-6.276 14.428-15.72 14.428z"/></g></svg>