<?xml version="1.0" encoding="utf-8"?>
<!-- Generator: Adobe Illustrator 25.2.1, SVG Export Plug-In . SVG Version: 6.00 Build 0)  -->
<svg version="1.2" baseProfile="tiny" id="Calque_1"
	 xmlns="http://www.w3.org/2000/svg" xmlns:xlink="http://www.w3.org/1999/xlink" x="0px" y="0px" viewBox="0 0 120 77"
	 overflow="visible" xml:space="preserve">
<rect fill-rule="evenodd" fill="#FF5A00" width="120" height="77"/>
<g>
	<path d="M29.0263672,60.2148438c-5.9594727,0-9.2636719-1.4746094-12.0371094-3.1269531l3.2456055-6.4316406
		c1.7700195,1.2392578,4.6611328,2.7138672,8.2016602,2.7138672c4.8383789,0,7.8476562-2.8320312,7.8476562-6.3720703
		c0-4.7802734-3.6582031-6.4316406-7.9067383-6.4316406h-4.3076172v-6.9042969h4.3666992
		c4.0712891,0,6.6083984-2.1240234,6.6083984-5.3105469c0-2.6552734-2.0058594-5.0742188-6.3725586-5.0742188
		c-3.8354492,0-6.3725586,1.8291016-7.7294922,3.0097656l-3.0092773-6.1367188
		c3.5400391-2.3603516,7.3754883-3.7177734,12.6269531-3.7177734c8.4970703,0,13.3354492,5.0742188,13.3354492,10.6210938
		c0,4.3076172-2.3012695,7.7294922-6.7265625,9.3818359v0.1181641c4.6025391,0.8847656,8.0834961,4.4257812,8.0834961,10.2666016
		C45.2529297,54.1376953,38.7036133,60.2148438,29.0263672,60.2148438z"/>
	<path d="M58.9394531,59.2119141V26.4638672c-2.5371094,2.0058594-6.5493164,3.953125-9.3227539,5.1923828l-2.8325195-6.3730469
		c4.3666992-1.8291016,9.6181641-4.6015625,13.7485352-7.7294922h7.2583008v41.6582031H58.9394531z"/>
	<path d="M86.0791016,59.2119141V26.4638672c-2.5371094,2.0058594-6.5488281,3.953125-9.3222656,5.1923828l-2.8330078-6.3730469
		c4.3671875-1.8291016,9.6181641-4.6015625,13.7490234-7.7294922h7.2568359v41.6582031H86.0791016z"/>
</g>
</svg>
