<svg xmlns="http://www.w3.org/2000/svg" height="1000" width="1718" viewBox="0 0 1804 1050"><path fill="#ffcd02" d="M0 0h1718v1000H0z"/><path d="M314.502 836.6c-81.899 0-131.399-18.899-182.699-47.699l48.6-98.1c27 20.7 71.1 41.399 125.099 41.399 73.799 0 119.7-39.6 119.7-93.599 0-72.9-55.8-96.3-120.6-96.3h-65.7V437.002h66.6c62.1 0 100.799-30.6 100.799-79.199 0-40.5-30.6-75.6-97.199-75.6-58.5 0-97.199 27.9-117.899 45.9l-44.1-93.6c54.9-36 116.099-56.7 190.799-56.7 129.599 0 203.398 75.6 203.398 160.199 0 65.699-35.1 116.099-102.6 141.299v1.8C508.9 494.601 562 546.8 562 635.9c0 111.601-99.899 200.7-247.498 200.7zM652.901 824v-83.699c16.2-73.8 89.1-138.6 173.699-212.398 42.299-36.9 88.199-81 88.199-142.199 0-54.9-36-99-105.298-99-55.8 0-94.5 40.5-109.8 57.6l-66.6-88.199c61.2-53.1 117.899-78.3 203.398-78.3 111.599 0 216.898 63 216.898 192.599 0 108.899-69.299 158.398-145.799 227.698-32.399 29.7-96.298 82.8-104.399 119.699h261.898V824H652.901zM1328.798 824V324.503c-21.601 17.1-85.5 50.399-108.899 62.1l-33.3 17.1-43.2-97.199 38.7-18c73.8-34.2 142.199-77.4 170.999-99.899h110.699V824h-134.999z"/></svg>