<svg xmlns="http://www.w3.org/2000/svg" width="120" height="77" viewBox="0 0 126 81"><path fill-rule="evenodd" clip-rule="evenodd" fill="#82c8e6" d="M0 0h120v77H0z"/><path d="M23.193 60.209c-5.924 0-9.209-1.466-11.966-3.108l3.226-6.394c1.76 1.231 4.634 2.698 8.153 2.698 4.81 0 7.801-2.815 7.801-6.335 0-4.751-3.637-6.394-7.86-6.394h-4.282v-6.862h4.34c4.047 0 6.569-2.112 6.569-5.279 0-2.64-1.994-5.044-6.334-5.044-3.813 0-6.334 1.818-7.684 2.991l-2.992-6.1c3.52-2.346 7.332-3.695 12.552-3.695 8.446 0 13.256 5.044 13.256 10.558 0 4.282-2.288 7.684-6.687 9.326v.117c4.575.88 8.036 4.399 8.036 10.206.002 7.274-6.508 13.315-16.128 13.315zM69.375 50.59v8.622h-8.211V50.59H42.512v-7.684l16.071-25.104h10.792v26.336h4.869v6.452h-4.869zm-8.211-25.515h-.117c-.176.704-1.35 3.226-2.992 5.807l-8.446 13.256h11.555V25.075zM92.236 60.326c-9.209 0-14.43-5.514-14.43-11.789 0-5.514 3.109-8.975 7.098-11.027-3.578-2.229-5.807-5.044-5.807-9.326 0-6.863 6.217-11.614 13.314-11.614 7.273 0 13.314 3.578 13.314 10.675 0 3.871-1.994 7.156-5.865 9.502 3.813 1.818 7.155 5.338 7.155 10.793.002 7.859-6.275 12.786-14.779 12.786zm-.705-19.942c-2.697 1.056-5.396 3.988-5.396 7.215 0 3.401 2.229 6.628 6.218 6.628 3.93 0 6.1-2.757 6.1-6.042 0-3.754-3.402-6.041-6.922-7.801zm.998-17.831c-3.227 0-5.279 1.994-5.279 4.868 0 3.402 3.402 5.514 6.041 6.628 2.171-.997 4.518-3.695 4.518-6.276 0-2.874-1.877-5.22-5.28-5.22z"/></svg>