<svg xmlns="http://www.w3.org/2000/svg" height="1000" width="1718" viewBox="0 0 1804 1050"><path fill="#652c90" d="M0 0h1718v1000H0z"/><g fill="#fff"><path d="M314.502 836.6c-81.899 0-131.399-18.899-182.699-47.699l48.6-98.1c27 20.7 71.1 41.399 125.099 41.399 73.799 0 119.7-39.6 119.7-93.599 0-72.9-55.8-96.3-120.6-96.3h-65.7V437.002h66.6c62.1 0 100.799-30.6 100.799-79.199 0-40.5-30.6-75.6-97.199-75.6-58.5 0-97.199 27.9-117.899 45.9l-44.1-93.6c54.9-36 116.099-56.7 190.799-56.7 129.599 0 203.398 75.6 203.398 160.199 0 65.699-35.1 116.099-102.6 141.299v1.8C508.9 494.601 562 546.8 562 635.9c0 111.601-99.899 200.7-247.498 200.7zM824.8 836.6c-67.5 0-125.1-18-174.6-45.899l46.8-98.999C727.601 712.4 763.6 732.2 817.6 732.2c49.5 0 111.599-27.899 111.599-102.599 0-45.9-30.601-108.899-147.599-109.799l-98.999-.9L707.8 188.604h333.898v105.299H813.1l-9 121.5 18 .9c173.698 9 243.898 105.299 243.898 200.698 0 121.5-96.3 219.599-241.198 219.599zM1361.197 840.2c-191.698 0-229.498-185.399-229.498-332.099 0-146.698 41.399-332.097 233.098-332.097s229.499 185.399 229.499 332.097c0 146.7-41.4 332.099-233.099 332.099zm1.8-557.096c-91.799 0-94.499 160.199-94.499 224.998 0 63.9 4.5 225.899 94.499 225.899 90 0 93.6-162.899 93.6-225.899 0-66.6-2.701-224.998-93.6-224.998z"/></g></svg>