<svg xmlns="http://www.w3.org/2000/svg" width="120" height="77" viewBox="0 0 126 81"><path fill-rule="evenodd" clip-rule="evenodd" fill="#d282be" d="M0 0h120v77H0z"/><path d="M25.492 60.209c-5.924 0-9.209-1.466-11.966-3.108l3.226-6.394c1.76 1.231 4.634 2.698 8.153 2.698 4.81 0 7.801-2.815 7.801-6.335 0-4.751-3.637-6.394-7.86-6.394h-4.282v-6.862h4.34c4.047 0 6.569-2.112 6.569-5.279 0-2.64-1.994-5.044-6.334-5.044-3.813 0-6.334 1.818-7.684 2.991l-2.992-6.1c3.52-2.346 7.332-3.695 12.552-3.695 8.446 0 13.256 5.044 13.256 10.558 0 4.282-2.288 7.684-6.687 9.326v.117c4.575.88 8.036 4.399 8.036 10.206.002 7.274-6.509 13.315-16.128 13.315zM54.506 60.209c-4.81 0-8.505-1.056-11.672-2.991l3.343-6.452c2.288 1.584 4.634 2.64 7.86 2.64s7.273-1.936 7.273-6.804c0-2.992-1.995-7.098-9.62-7.215-2.346 0-5.103-.059-6.452-.059l1.642-21.526h21.762v6.921H53.744l-.586 7.86c.234 0 .762.059 1.173.059 11.32.528 15.896 6.921 15.896 13.139-.001 7.917-6.278 14.428-15.721 14.428zM100.436 50.59v8.622h-8.212V50.59H73.572v-7.684l16.07-25.104h10.793v26.336h4.868v6.452h-4.867zm-8.212-25.515h-.117c-.176.704-1.349 3.226-2.991 5.807L80.67 44.138h11.555V25.075z"/></svg>