<svg xmlns="http://www.w3.org/2000/svg" width="120" height="77" viewBox="0 0 126 81"><path fill-rule="evenodd" clip-rule="evenodd" fill="#82c8e6" d="M0 0h120v77H0z"/><path d="M28.111 60.209c-5.924 0-9.209-1.466-11.966-3.108l3.226-6.394c1.76 1.231 4.634 2.698 8.153 2.698 4.81 0 7.801-2.815 7.801-6.335 0-4.751-3.637-6.394-7.86-6.394h-4.282v-6.862h4.341c4.047 0 6.569-2.112 6.569-5.279 0-2.64-1.995-5.044-6.335-5.044-3.813 0-6.335 1.818-7.684 2.991l-2.992-6.1c3.52-2.346 7.332-3.695 12.552-3.695 8.446 0 13.256 5.044 13.256 10.558 0 4.282-2.288 7.684-6.687 9.326v.117c4.575.88 8.036 4.399 8.036 10.206.002 7.274-6.509 13.315-16.128 13.315zM57.125 60.209c-4.81 0-8.505-1.056-11.672-2.991l3.343-6.452c2.288 1.584 4.634 2.64 7.859 2.64 3.226 0 7.273-1.936 7.273-6.804 0-2.992-1.994-7.098-9.619-7.215-2.347 0-5.103-.059-6.452-.059L49.5 17.802h21.761v6.921H56.362l-.586 7.86c.234 0 .762.059 1.173.059 11.321.528 15.895 6.921 15.895 13.139 0 7.917-6.276 14.428-15.719 14.428zM89.253 59.212H79.81c0-5.455 1.466-8.975 5.103-15.72l10.089-18.77H74.883v-6.921h28.975v6.745c-9.091 15.779-14.605 28.155-14.605 34.666z"/></svg>