<svg xmlns="http://www.w3.org/2000/svg" width="120" height="77" viewBox="0 0 126 81"><path fill-rule="evenodd" clip-rule="evenodd" fill="#0055c8" d="M0 0h120v77H0z"/><g fill="#fff"><path d="M26.216 60.209c-5.924 0-9.209-1.466-11.966-3.108l3.226-6.394c1.76 1.231 4.634 2.698 8.153 2.698 4.81 0 7.801-2.815 7.801-6.335 0-4.751-3.637-6.394-7.86-6.394h-4.282v-6.862h4.341c4.047 0 6.569-2.112 6.569-5.279 0-2.64-1.995-5.044-6.335-5.044-3.813 0-6.335 1.818-7.684 2.991l-2.992-6.1c3.52-2.346 7.332-3.695 12.552-3.695 8.446 0 13.256 5.044 13.256 10.558 0 4.282-2.288 7.684-6.687 9.326v.117c4.575.88 8.036 4.399 8.036 10.206.002 7.274-6.509 13.315-16.128 13.315zM55.23 60.209c-4.81 0-8.505-1.056-11.672-2.991l3.343-6.452c2.288 1.584 4.634 2.64 7.859 2.64 3.226 0 7.273-1.936 7.273-6.804 0-2.992-1.994-7.098-9.619-7.215-2.347 0-5.103-.059-6.452-.059l1.642-21.526h21.761v6.921H54.468l-.586 7.86c.234 0 .762.059 1.173.059 11.321.528 15.895 6.921 15.895 13.139-.001 7.917-6.276 14.428-15.72 14.428zM89.212 60.326c-9.209 0-14.429-5.514-14.429-11.789 0-5.514 3.108-8.975 7.097-11.027-3.578-2.229-5.807-5.044-5.807-9.326 0-6.863 6.218-11.614 13.314-11.614 7.273 0 13.314 3.578 13.314 10.675 0 3.871-1.994 7.156-5.865 9.502 3.813 1.818 7.155 5.338 7.155 10.793.001 7.859-6.274 12.786-14.779 12.786zm-.704-19.942c-2.698 1.056-5.396 3.988-5.396 7.215 0 3.401 2.229 6.628 6.218 6.628 3.93 0 6.101-2.757 6.101-6.042-.001-3.754-3.404-6.041-6.923-7.801zm.997-17.831c-3.226 0-5.278 1.994-5.278 4.868 0 3.402 3.401 5.514 6.041 6.628 2.17-.997 4.517-3.695 4.517-6.276-.001-2.874-1.878-5.22-5.28-5.22z"/></g></svg>