<?xml version="1.0" encoding="utf-8"?>
<!-- Generator: Adobe Illustrator 24.1.2, SVG Export Plug-In . SVG Version: 6.00 Build 0)  -->
<svg version="1.2" baseProfile="tiny" id="Calque_1"
	 xmlns="http://www.w3.org/2000/svg" xmlns:xlink="http://www.w3.org/1999/xlink" x="0px" y="0px" width="120px" height="77px"
	 viewBox="0 0 120 77" overflow="visible" xml:space="preserve">
<rect fill-rule="evenodd" fill="#6E491E" width="120" height="77"/>
<g>
	<path fill="#FFFFFF" d="M24.3066406,60.2148438c-5.9589844,0-9.2636719-1.4746094-12.0371094-3.1269531l3.2451172-6.4316406
		c1.7705078,1.2392578,4.6621094,2.7138672,8.2021484,2.7138672c4.8388672,0,7.8476563-2.8320313,7.8476563-6.3720703
		c0-4.7802734-3.6582031-6.4316406-7.90625-6.4316406h-4.3076172v-6.9038086h4.3662109
		c4.0712891,0,6.6083984-2.1245117,6.6083984-5.3105469c0-2.6552734-2.0058594-5.074707-6.3720703-5.074707
		c-3.8359375,0-6.3730469,1.8291016-7.7304688,3.0092773l-3.0087891-6.1367188
		c3.5400391-2.3598633,7.3759766-3.7172852,12.6269531-3.7172852c8.4970703,0,13.3349609,5.074707,13.3349609,10.6210938
		c0,4.3076172-2.3007813,7.7299805-6.7265625,9.3818359v0.1181641c4.6025391,0.8847656,8.0839844,4.4257813,8.0839844,10.2666016
		C40.5332031,54.1376953,33.9833984,60.2148438,24.3066406,60.2148438z"/>
	<path fill="#FFFFFF" d="M59.8251953,60.3330078c-9.2636719,0-14.515625-5.546875-14.515625-11.8603516
		c0-5.5458984,3.1269531-9.0273438,7.1396484-11.0927734c-3.5996094-2.2421875-5.8417969-5.074707-5.8417969-9.3818359
		c0-6.9038086,6.2548828-11.6831055,13.3945313-11.6831055c7.3164063,0,13.3945313,3.5991211,13.3945313,10.7387695
		c0,3.8945313-2.0058594,7.1987305-5.9003906,9.559082c3.8349609,1.8295898,7.1982422,5.3696289,7.1982422,10.8569336
		C74.6943359,55.3769531,68.3808594,60.3330078,59.8251953,60.3330078z M59.1171875,40.2714844
		c-2.7148438,1.0615234-5.4287109,4.0117188-5.4287109,7.2568359c0,3.4228516,2.2421875,6.6679688,6.2548828,6.6679688
		c3.953125,0,6.1367188-2.7734375,6.1367188-6.0771484C66.0800781,44.3427734,62.6572266,42.0410156,59.1171875,40.2714844z
		 M60.1201172,22.3334961c-3.2451172,0-5.3105469,2.0058594-5.3105469,4.8974609
		c0,3.4223633,3.421875,5.5463867,6.0771484,6.6674805c2.1835938-1.0029297,4.5439453-3.7172852,4.5439453-6.3134766
		C65.4306641,24.6933594,63.5419922,22.3334961,60.1201172,22.3334961z"/>
	<path fill="#FFFFFF" d="M79.5302734,59.2119141v-5.4873047c1.0615234-4.8388672,5.8408203-9.2636719,11.3876953-14.1025391
		c2.7734375-2.4194336,5.7822266-5.4287109,5.7822266-9.440918c0-3.5996094-2.3603516-6.6088867-6.9033203-6.6088867
		c-3.6582031,0-6.1953125,2.6552734-7.1992188,3.7763672l-4.3662109-5.7822266
		c4.0126953-3.4814453,7.7294922-5.1337891,13.3359375-5.1337891c7.3164063,0,14.2197266,4.2485352,14.2197266,12.7456055
		c0,7.1396484-4.5429688,10.5024414-9.5585938,15.0463867c-2.1240234,1.9472656-6.3134766,5.6054688-6.8447266,8.0244141h17.1708984
		v6.9628906H79.5302734z"/>
</g>
<g>
</g>
</svg>
