<svg xmlns="http://www.w3.org/2000/svg" height="1000" width="1718" viewBox="0 0 1804 1050"><path fill="#006cb8" d="M0 0h1718v1000H0z"/><g fill="#fff"><path d="M314.502 836.6c-81.899 0-131.399-18.899-182.699-47.699l48.6-98.1c27 20.7 71.1 41.399 125.099 41.399 73.799 0 119.7-39.6 119.7-93.599 0-72.9-55.8-96.3-120.6-96.3h-65.7V437.002h66.6c62.1 0 100.799-30.6 100.799-79.199 0-40.5-30.6-75.6-97.199-75.6-58.5 0-97.199 27.9-117.899 45.9l-44.1-93.6c54.9-36 116.099-56.7 190.799-56.7 129.599 0 203.398 75.6 203.398 160.199 0 65.699-35.1 116.099-102.6 141.299v1.8C508.9 494.601 562 546.8 562 635.9c0 111.601-99.899 200.7-247.498 200.7zM856.299 838.4c-141.299 0-221.398-84.6-221.398-180.899 0-84.599 47.7-134.099 108.899-165.599-54.899-34.2-89.1-72.899-89.1-138.599 0-105.299 95.399-178.199 204.299-178.199 111.599 0 204.298 54.899 204.298 163.799 0 59.399-30.6 105.299-89.999 141.299 58.499 27.899 109.799 78.3 109.799 161.999.001 120.6-96.298 196.199-226.798 196.199zM845.5 536.002c-41.399 16.199-82.799 57.6-82.799 107.1 0 52.199 34.199 101.699 95.399 101.699 60.298 0 93.598-42.3 93.598-92.699 0-57.6-52.199-89.1-106.198-116.1zm15.299-269.098c-49.499 0-80.999 30.6-80.999 74.7 0 52.199 52.199 80.099 92.699 97.199 33.3-15.3 69.3-52.2 69.3-91.799 0-44.101-28.8-80.1-81-80.1zM1285.598 834.8c-36 0-68.399-4.5-94.499-10.8l19.8-107.999c17.1 7.2 49.5 15.3 85.499 15.3 87.3 0 152.999-63.899 161.1-191.699-21.601 18.9-62.1 43.2-129.6 43.2-103.499 0-188.099-69.3-188.099-188.099 0-126.899 84.6-219.599 215.099-219.599 170.999 0 232.198 119.699 232.198 287.998 0 220.499-101.7 371.698-301.498 371.698zm73.799-559.796c-61.199 0-92.699 51.299-92.699 106.199 0 59.399 38.699 101.699 99.899 101.699 38.699 0 70.199-15.3 82.799-35.1 7.2-10.8 7.2-35.1 7.2-54 .001-60.299-34.2-118.798-97.199-118.798z"/></g></svg>