<svg xmlns="http://www.w3.org/2000/svg" width="120" height="77" viewBox="0 0 126 81"><path fill-rule="evenodd" clip-rule="evenodd" fill="#d282be" d="M0 0h120v77H0z"/><path d="M26.468 60.209c-5.924 0-9.209-1.466-11.966-3.108l3.226-6.394c1.76 1.231 4.634 2.698 8.153 2.698 4.81 0 7.801-2.815 7.801-6.335 0-4.751-3.637-6.394-7.86-6.394H21.54v-6.862h4.341c4.047 0 6.569-2.112 6.569-5.279 0-2.64-1.995-5.044-6.335-5.044-3.813 0-6.335 1.818-7.684 2.991l-2.992-6.1c3.52-2.346 7.332-3.695 12.552-3.695 8.446 0 13.256 5.044 13.256 10.558 0 4.282-2.288 7.684-6.687 9.326v.117c4.575.88 8.036 4.399 8.036 10.206.002 7.274-6.509 13.315-16.128 13.315zM54.796 60.326a27.48 27.48 0 0 1-6.217-.704l1.291-7.038c1.114.469 3.285.997 5.689.997 5.807 0 10.029-4.634 10.616-12.963-1.407 1.232-4.105 2.815-8.563 2.815-6.862 0-12.376-4.517-12.376-12.259 0-8.27 5.514-14.37 14.194-14.37 11.32 0 15.367 7.859 15.367 18.828 0 14.371-6.745 24.694-20.001 24.694zm4.986-37.011c-4.106 0-6.217 3.343-6.217 6.921 0 3.871 2.581 6.687 6.687 6.687 2.64 0 4.751-.997 5.572-2.287.47-.704.47-2.346.47-3.578-.001-3.93-2.289-7.743-6.512-7.743zM77.698 59.212v-5.455c1.056-4.81 5.807-9.209 11.32-14.019 2.757-2.404 5.748-5.396 5.748-9.385 0-3.578-2.347-6.569-6.862-6.569-3.637 0-6.159 2.64-7.156 3.754l-4.34-5.748c3.988-3.46 7.684-5.103 13.256-5.103 7.273 0 14.135 4.223 14.135 12.669 0 7.098-4.516 10.44-9.502 14.957-2.111 1.936-6.275 5.572-6.804 7.978h17.069v6.921H77.698z"/></svg>