<svg xmlns="http://www.w3.org/2000/svg" height="1000" width="1718" viewBox="0 0 1804 1050"><path fill="#bb4b9c" d="M0 0h1718v1000H0z"/><g fill="#fff"><path d="M541.002 874c-75 0-139-20-194-51l52-110c34 23 74 45 134 45 55 0 124-31 124-114 0-51-34-121-164-122l-110-1 28-367h371v117h-254l-10 135 20 1c193 10 271 117 271 223 0 135-107 244-268 244zM1153 876c-190 0-258-133-258-320 0-245 113-413 335-413 40 0 76 5 105 12l-22 120c-19-8-55-17-95-17-97 0-170 71-179 213 24-21 69-48 144-48 115 0 209 77 209 209 0 141-94 244-239 244zm-13-342c-43 0-78 17-92 39-8 12-8 39-8 60 0 67 38 132 108 132 68 0 103-57 103-118 0-66-43-113-111-113z"/></g></svg>