<svg xmlns="http://www.w3.org/2000/svg" height="1000" width="1718" viewBox="0 0 1804 1050"><path fill="#008b5a" d="M0 0h1718v1000H0z"/><g fill="#fff"><path d="M541.002 874c-75 0-139-20-194-51l52-110c34 23 74 45 134 45 55 0 124-31 124-114 0-51-34-121-164-122l-110-1 28-367h371v117h-254l-10 135 20 1c193 10 271 117 271 223 0 135-107 244-268 244zM1136 876c-157 0-246-94-246-201 0-94 53-149 121-184-61-38-99-81-99-154 0-117 106-198 227-198 124 0 227 61 227 182 0 66-34 117-100 157 65 31 122 87 122 180 0 134-107 218-252 218zm-12-336c-46 18-92 64-92 119 0 58 38 113 106 113 67 0 104-47 104-103 0-64-58-99-118-129zm17-299c-55 0-90 34-90 83 0 58 58 89 103 108 37-17 77-58 77-102 0-49-32-89-90-89z"/></g></svg>