<svg xmlns="http://www.w3.org/2000/svg" height="1000" width="1718" viewBox="0 0 1804 1050"><path fill="#ffcd02" d="M0 0h1718v1000H0z"/><path d="M576.002 876c-157 0-246-94-246-201 0-94 53-149 121-184-61-38-99-81-99-154 0-117 106-198 227-198 124 0 227 61 227 182 0 66-34 117-100 157 65 31 122 87 122 180 0 134-107 218-252 218zm-12-336c-46 18-92 64-92 119 0 58 38 113 106 113 67 0 104-47 104-103 0-64-58-99-118-129zm17-299c-55 0-90 34-90 83 0 58 58 89 103 108 37-17 77-58 77-102 0-49-32-89-90-89zM1094 874c-91 0-146-21-203-53l54-109c30 23 79 46 139 46 82 0 133-44 133-104 0-81-62-107-134-107h-73V430h74c69 0 112-34 112-88 0-45-34-84-108-84-65 0-108 31-131 51l-49-104c61-40 129-63 212-63 144 0 226 84 226 178 0 73-39 129-114 157v2c78 15 137 73 137 172 0 124-111 223-275 223z"/></svg>