<svg xmlns="http://www.w3.org/2000/svg" height="1000" width="1718" viewBox="0 0 1804 1050"><path fill="#77c695" d="M0 0h1718v1000H0z"/><path d="M493.002 872c-40 0-76-5-105-12l22-120c19 8 55 17 95 17 97 0 170-71 179-213-24 21-69 48-144 48-115 0-209-77-209-209 0-141 94-244 239-244 190 0 258 133 258 320 0 245-113 413-335 413zm82-622c-68 0-103 57-103 118 0 66 43 113 111 113 43 0 78-17 92-39 8-12 8-39 8-60 0-67-38-132-108-132zM1094 874c-91 0-146-21-203-53l54-109c30 23 79 46 139 46 82 0 133-44 133-104 0-81-62-107-134-107h-73V430h74c69 0 112-34 112-88 0-45-34-84-108-84-65 0-108 31-131 51l-49-104c61-40 129-63 212-63 144 0 226 84 226 178 0 73-39 129-114 157v2c78 15 137 73 137 172 0 124-111 223-275 223z"/></svg>