<svg xmlns="http://www.w3.org/2000/svg" width="120" height="77" viewBox="0 0 126 81"><path fill-rule="evenodd" clip-rule="evenodd" fill="#640082" d="M0 0h120v77H0z"/><g fill="#fff"><path d="M28.894 44.652h-4.219v14.531h-9.141V17.816H28.25c9.551 0 17.754 2.578 17.754 12.832-.001 12.012-10.02 14.004-17.11 14.004zm-.117-19.746h-4.102v12.715h4.219c3.398 0 7.852-1.055 7.852-6.387 0-5.625-4.922-6.328-7.969-6.328zM69.831 60.18c-10.488 0-20.508-6.914-20.508-21.211 0-12.363 7.207-22.266 20.508-22.266 5.098 0 8.848 1.055 11.836 2.402l-2.988 7.559c-2.695-1.523-5.742-2.227-8.379-2.227-6.328 0-11.484 4.16-11.484 14.121 0 9.492 6.211 13.887 12.188 13.887 3.281 0 6.211-.996 8.262-2.227l2.461 7.09c-3.165 1.7-7.677 2.872-11.896 2.872zM95.439 59.184v-32.52c-2.52 1.992-6.504 3.926-9.258 5.156l-2.813-6.328c4.336-1.816 9.551-4.57 13.652-7.676h7.207v41.367h-8.788z"/></g></svg>