<svg xmlns="http://www.w3.org/2000/svg" width="120" height="77" viewBox="0 0 126 81"><path fill-rule="evenodd" clip-rule="evenodd" fill="#ff1400" d="M0 0h120v77H0z"/><g fill="#fff"><path d="M26.146 44.652h-4.219v14.531h-9.141V17.816h12.715c9.551 0 17.754 2.578 17.754 12.832 0 12.012-10.02 14.004-17.109 14.004zm-.118-19.746h-4.102v12.715h4.219c3.398 0 7.852-1.055 7.852-6.387 0-5.625-4.922-6.328-7.969-6.328zM67.082 60.18c-10.488 0-20.507-6.914-20.507-21.211 0-12.363 7.207-22.266 20.507-22.266 5.098 0 8.848 1.055 11.836 2.402l-2.988 7.559c-2.695-1.523-5.742-2.227-8.379-2.227-6.328 0-11.484 4.16-11.484 14.121 0 9.492 6.21 13.887 12.187 13.887 3.281 0 6.211-.996 8.262-2.227l2.461 7.09c-3.164 1.7-7.676 2.872-11.895 2.872zM93.91 60.18c-5.918 0-9.199-1.465-11.953-3.105l3.223-6.387c1.758 1.23 4.629 2.695 8.145 2.695 4.805 0 7.793-2.813 7.793-6.328 0-4.746-3.633-6.387-7.852-6.387h-4.277v-6.855h4.336c4.043 0 6.563-2.109 6.563-5.273 0-2.637-1.992-5.039-6.328-5.039-3.809 0-6.328 1.816-7.676 2.988l-2.988-6.094c3.516-2.344 7.324-3.691 12.539-3.691 8.438 0 13.242 5.039 13.242 10.547 0 4.277-2.285 7.676-6.68 9.316v.117c4.57.879 8.027 4.395 8.027 10.195-.001 7.266-6.504 13.301-16.114 13.301z"/></g></svg>